<?xml version="1.0" standalone="no"?>
<!DOCTYPE svg PUBLIC "-//W3C//DTD SVG 1.1//EN" "http://www.w3.org/Graphics/SVG/1.1/DTD/svg11.dtd" >
<!--
2013-9-30: Created.
-->
<svg>
<metadata>
Created by iconfont
</metadata>
<defs>

<font id="iconfont" horiz-adv-x="1024" >
  <font-face
    font-family="iconfont"
    font-weight="500"
    font-stretch="normal"
    units-per-em="1024"
    ascent="896"
    descent="-128"
  />
    <missing-glyph />
    
    <glyph glyph-name="jian" unicode="&#58881;" d="M507.904 843.776q95.232 0 179.2-36.352t145.92-98.304 98.304-145.408 36.352-178.688-36.352-179.2-98.304-145.92-145.92-98.304-179.2-36.352-178.688 36.352-145.408 98.304-98.304 145.92-36.352 179.2 36.352 178.688 98.304 145.408 145.408 98.304 178.688 36.352zM736.256 322.56q30.72 0 55.296 15.872t24.576 47.616q0 30.72-24.576 45.568t-55.296 14.848l-452.608 0q-30.72 0-56.32-14.848t-25.6-45.568q0-31.744 25.6-47.616t56.32-15.872l452.608 0z"  horiz-adv-x="1024" />

    
    <glyph glyph-name="error" unicode="&#58923;" d="M512 831.696462c-247.25636 0-447.696462-200.440102-447.696462-447.696462 0-247.254314 200.440102-447.696462 447.696462-447.696462s447.696462 200.440102 447.696462 447.696462S759.25636 831.696462 512 831.696462zM710.491727 230.733291c12.491499-12.491499 12.489452-32.729425-0.002047-45.220924-6.246261-6.246261-14.429641-9.370415-22.611997-9.370415s-16.363689 3.121084-22.60995 9.366322L512 338.777029 358.730221 185.508273c-6.246261-6.246261-14.429641-9.366322-22.611997-9.366322s-16.365736 3.125177-22.611997 9.370415c-12.491499 12.491499-12.491499 32.729425 0 45.220924l153.268756 153.266709L313.50725 537.269779c-12.491499 12.491499-12.489452 32.729425 0.002047 45.220924s32.729425 12.495592 45.220924 0.004093l153.268756-153.268756 153.268756 153.268756c12.491499 12.491499 32.729425 12.487406 45.220924-0.004093s12.493545-32.729425 0.002047-45.220924L557.225017 384 710.491727 230.733291z"  horiz-adv-x="1024" />

    
    <glyph glyph-name="shoukuan" unicode="&#58904;" d="M946.405249 314.963671l-356.407316-312.27212c-21.727861-17.534352-49.297776-28.077475-79.348186-28.077475-29.804816 0-57.152674 10.399861-78.798671 27.663036L75.557348 314.151166c-7.77508 8.93551-12.643971 20.48045-12.643971 33.278941 0 23.308869 15.745612 42.75271 37.08564 48.747237 0 0 5.126764 1.987261 12.599969 1.987261s104.987123 0 104.987123 0L217.586109 723.554486c0 46.799886 35.207873 81.406055 81.867566 81.406055L721.843774 804.960541c46.659693 0 81.867566-34.606169 81.867566-81.406055l0-325.388858 102.985536 0c0.339738 0 0.657986 0.098237 1.000793 0.098237 0.340761 0 0.660032-0.098237 1.001817-0.098237l1.182942 0 0.057305-0.12689c26.925233-1.208525 48.446385-23.306822 48.446385-50.607608C958.385095 335.012286 953.774077 323.786617 946.405249 314.963671zM624.617405 454.91205c18.657942 0 29.647227 14.481829 29.647227 33.196053 0 18.714224-10.988262 31.930223-29.647227 31.930223l-71.856561 0.019443 74.242911 74.613348c13.291724 13.32447 13.291724 34.932604 0 48.264237-13.284561 13.331633-34.836413 13.331633-48.120974 0l-68.806085-69.012793-68.533886 68.74264c-13.292748 13.331633-34.836413 13.331633-48.121997 0-13.292748-13.331633-13.292748-34.94079 0-48.263214l74.150814-74.386174-70.889537 0.023536c-18.658965 0-29.647227-13.216-29.647227-31.930223 0-18.714224 10.988262-33.196053 29.647227-33.196053l73.264631 0 0-40.703027-73.264631 0c-18.658965 0-29.647227-12.120039-29.647227-30.848589 0-18.714224 10.988262-34.275641 29.647227-34.275641l73.264631 0 0-48.842405c0-23.388686 17.370623-40.703027 40.704051-40.703027 23.325241 0 40.702004 17.314341 40.702004 40.703027l0 48.842405 75.360362 0c18.657942 0 27.552519 12.491499 27.552519 31.205723 0 24.347524-12.986779 33.918507-31.645744 33.918507l-71.267137 0 0 40.703027L624.617405 454.913073z"  horiz-adv-x="1024" />

    
    <glyph glyph-name="kuaidi" unicode="&#58899;" d="M962.289 44.587l-73.422 0c-8.889 71.183-69.5 126.297-143.088 126.297s-134.199-55.114-143.089-126.297l-55.376 0c-29.892 0-54.129 24.243-54.129 54.126l0 487.149c0 29.9 24.236 54.127 54.129 54.127l414.976 0c29.891 0 54.128-24.227 54.128-54.127l0-487.149c0-29.883-24.236-54.126-54.128-54.126zM402.974 44.587l-37.327 0c-8.898 71.183-69.509 126.297-143.098 126.297-73.591 0-134.194-55.114-143.092-126.297l-37.332 0c-19.926 0-36.084 16.157-36.084 36.086 0 0 0 87.973 0 198.467 0 72.099 123.421 252.594 180.423 252.594 110.501 0 216.51 0 216.51 0 19.929 0 36.084-16.157 36.084-36.084l0-414.976c0.001-19.931-16.157-36.087-36.083-36.087zM330.804 441.521c0 0-56.876 2.625-125.135 0-29.125-1.11-109.418-107.374-109.418-162.382 0-14.079 0-17.392 0-18.043l234.553 0 0 180.425zM222.548 116.756c49.82 0 90.212-40.384 90.212-90.212 0-49.81-40.393-90.211-90.212-90.211-49.824 0-90.212 40.403-90.212 90.211 0 49.828 40.389 90.212 90.212 90.212zM750.29 116.756c52.311 0 94.723-42.411 94.723-94.724s-42.412-94.721-94.723-94.721c-52.313 0-94.723 42.411-94.723 94.721 0 52.314 42.412 94.724 94.723 94.724z"  horiz-adv-x="1024" />

    
    <glyph glyph-name="key" unicode="&#59621;" d="M704.108798 895.97952c-176.738865 0-319.9936-143.295694-319.9936-319.9936 0-41.123018 8.601428-80.034239 22.814264-116.119278l-388.764065-388.723106c-11.222816-11.263775-18.165397-21.954121-18.165397-39.136497l0-96.00832c0-34.241875 29.736365-63.99872 63.99872-63.99872l96.00832 0c17.141417 0 27.9956 6.881142 39.238895 18.042519l45.915242 45.956201 74.97578 0c35.327293 0 63.99872 28.671427 63.99872 63.99872l0 63.99872 63.99872 0c35.327293 0 63.99872 28.671427 63.99872 63.99872l0 75.01674 75.815444 75.876882c36.125997-14.233315 75.01674-22.875702 116.180716-22.875702 176.677426 0 319.9936 143.295694 319.9936 319.9936s-143.316174 319.9936-319.9936 319.9936zM704.108798 319.99104c-47.369293 0-91.257055 13.762285-129.308134 36.228395l-11.01802-10.97706-96.950381-96.99134c-12.00104-12.00104-18.759305-28.261835-18.759305-45.239415l0-75.01674-63.99872 0c-35.327293 0-63.99872-28.630467-63.99872-63.99872l0-63.99872-74.934821 0c-16.957101 0-33.238375-6.758265-45.239415-18.759305l-45.382772-45.382772-90.437871 0.122878-0.102398 91.195616 373.281494 372.605668c0 0 0-0.040959 0.040959-0.061439l47.00066 47.00066c-22.466111 38.051079-36.228395 81.918362-36.228395 129.287654 0 141.370613 114.644747 255.99488 255.99488 255.99488s255.99488-114.624268 255.99488-255.99488-114.583308-256.035839-255.953921-256.035839zM890.227315 632.345753c-35.880242 49.99068-79.542729 93.591728-129.758685 129.717726-8.150877 5.918602-18.718346 7.393132-28.220876 4.054959-44.440711-15.646407-74.873383-46.038119-90.437871-90.49931-1.187816-3.317694-1.761245-6.778744-1.761245-10.198836 0-6.369153 1.98652-12.676866 5.816204-18.02204 36.00312-50.052119 79.624648-93.694126 129.697246-129.697246 8.191836-5.877642 18.697866-7.393132 28.200396-4.095918 44.50215 15.544009 74.934821 46.01764 90.560749 90.49931 1.187816 3.317694 1.761245 6.778744 1.761245 10.198836-0.040959 6.369153-2.047959 12.676866-5.857163 18.02204zM794.218996 543.669127c-47.287374 34.0166-88.471831 75.201056-122.242675 121.382532 12.390152 35.286334 35.552569 58.469231 69.814924 71.064179 47.328333-34.078038 88.451351-75.160097 122.099318-121.955961-12.51303-35.040579-35.614008-58.080118-69.692046-70.49075z"  horiz-adv-x="1025" />

    
    <glyph glyph-name="wechat" unicode="&#60541;" d="M331.556571 632.539429q0 23.405714-14.262857 37.741714t-37.741714 14.262857q-24.576 0-43.446857-14.555429t-18.870857-37.449143q0-22.308571 18.870857-36.864t43.446857-14.555429q23.405714 0 37.741714 13.970286t14.262857 37.449143zM756.150857 342.820571q0 16.018286-14.555429 28.598857t-37.449143 12.580571q-15.433143 0-28.306286-12.873143t-12.873143-28.306286q0-16.018286 12.873143-28.891429t28.306286-12.873143q22.820571 0 37.449143 12.580571t14.555429 29.110857zM621.275429 632.539429q0 23.405714-13.970286 37.741714t-37.449143 14.262857q-24.576 0-43.446857-14.555429t-18.870857-37.449143q0-22.308571 18.870857-36.864t43.446857-14.555429q23.405714 0 37.449143 13.970286t13.970286 37.449143zM984.137143 342.820571q0 16.018286-14.848 28.598857t-37.156571 12.580571q-15.433143 0-28.306286-12.873143t-12.873143-28.306286q0-16.018286 12.873143-28.891429t28.306286-12.873143q22.308571 0 37.156571 12.580571t14.848 29.110857zM832.146286 569.709714q-17.700571 2.267429-40.009143 2.267429-96.548571 0-177.737143-44.032t-127.707429-119.149714-46.592-164.278857q0-44.544 13.165714-86.820571-19.968-1.682286-38.838857-1.682286-14.848 0-28.598857 0.877714t-31.451429 3.730286-25.453714 4.022857-31.158857 5.997714-28.598857 5.997714l-144.603429-72.557714 41.179429 124.562286q-165.741714 116.004571-165.741714 279.990857 0 96.548571 55.734857 177.737143t150.820571 127.707429 207.725714 46.592q100.571429 0 190.025143-37.741714t149.723429-104.301714 77.970286-148.845714zM1170.432 249.124571q0-66.852571-39.131429-127.707429t-105.984-110.592l31.451429-103.424-113.737143 62.317714q-85.723429-21.138286-124.562286-21.138286-96.548571 0-177.737143 40.301714t-127.707429 109.421714-46.592 150.820571 46.592 150.820571 127.707429 109.421714 177.737143 40.301714q92.013714 0 173.129143-40.301714t129.974857-109.714286 48.859429-150.601143z"  horiz-adv-x="1171" />

    
    <glyph glyph-name="security" unicode="&#58979;" d="M511.104 768c1.28 0 2.496 0 3.776 0 0.96-0.384 1.92-0.896 2.944-1.088 55.616-10.752 111.232-21.504 166.784-32.256 65.536-12.672 131.136-25.344 196.672-38.080 15.872-3.072 31.744-6.336 47.68-9.472 0.064-1.92 0.192-3.328 0.192-4.672 0-161.408 0-322.816 0-484.16 0-28.096-6.016-54.848-17.472-80.384-23.040-51.328-57.024-94.848-96.704-134.144-38.080-37.76-80.256-70.528-125.312-99.52-44.608-28.736-91.392-53.248-142.336-69.056-8.896-2.752-17.984-4.8-26.944-7.168-1.536 0-3.136 0-4.672 0-0.512 0.32-1.024 0.768-1.6 0.832-29.568 5.888-57.6 16.384-84.864 28.864-80.32 36.8-152.576 85.824-216.64 146.624-37.824 35.904-70.4 76.032-94.464 122.688-14.976 29.056-23.488 59.648-23.488 92.544 0.192 160.768 0.192 321.6 0.192 482.304 0 1.664 0.128 3.328 0.192 5.056 10.176 1.536 19.904 2.816 29.568 4.608 46.272 8.96 92.48 17.984 138.688 27.136 72.256 14.208 144.448 28.416 216.704 42.752 10.432 2.048 20.736 4.416 31.104 6.592zM512.64 329.792c0.128 1.984 0.448 4.032 0.448 6.080 0 118.4 0 236.8 0 355.264 0 0.768-0.128 1.536 0 2.304 0.64 3.776-1.6 4.8-4.608 4.544-3.584-0.32-7.104-0.96-10.624-1.6-56.64-10.176-113.344-20.352-169.984-30.528-48.192-8.576-96.448-17.344-144.704-25.792-3.776-0.704-4.608-2.176-4.608-5.76 0.064-99.712 0.064-199.36 0.064-299.008 0-1.6 0.256-3.264 0.384-5.12 2.56 0 4.608 0 6.656 0 107.136 0 214.336 0 321.472 0 1.856 0 3.776-0.128 5.632-0.256 0.064-1.984 0.128-4.032 0.128-6.080 0-142.144 0-284.288 0-426.432 0-1.984 0-3.968 0-6.208 1.472 0.256 2.496 0.256 3.328 0.576 16.768 5.376 33.792 10.112 50.24 16.384 58.304 22.336 111.552 53.696 160.64 92.032 36.672 28.672 68.928 61.632 92.608 102.144 16 27.264 25.984 56.192 25.856 88.256-0.256 44.8-0.064 89.6-0.064 134.528 0 1.6-0.128 3.328-0.256 5.312-2.048 0-3.584 0-5.12 0-107.456 0-214.912 0-322.432-0.064-1.728-0-3.392-0.384-5.056-0.576z"  horiz-adv-x="1024" />

    
    <glyph glyph-name="favourable_full" unicode="&#58917;" d="M944.034 262.5c23.016 39.982-15.074 75.582-29.763 98.217 3.074 27.689 34.031 43.974 20.833 91.274-24.3 87.099-227.402 50.854-318.466 48.612v0.993c42.678 61.060 92.612 149.592 65.479 251.994-10.17 38.381-19.006 77.050-68.455 76.392-3.306-1.322-6.615-2.645-9.92-3.968-7.581-63.981-50.299-116.008-81.354-158.736-7.605-15.211-15.212-30.425-22.817-45.637-18.037-32.173-53.831-59.3-83.338-80.36-27.454-19.596-122.467-69.313-134.926-93.257-9.201-17.682-1.78-43.291 1.983-62.504 4.629-48.938 9.261-97.893 13.89-146.831 0.661-45.962 1.323-91.939 1.983-137.903-0.010-22.035-4.063-49.449 4.961-62.501 12.996-18.801 100.23-27.049 127.982-35.716 39.57-12.356 61.096-40.713 99.21-52.582 54.331-16.916 185.020-13.694 246.042-3.968 36.48 5.815 69.796 3.42 95.242 18.849 17.575 10.658 39.792 40.075 29.764 73.417-3.695 12.283-19.491 20.306-14.882 39.683 5.461 22.969 38.352 27.678 47.621 49.607 22.385 52.955-31.127 70.904-25.794 96.234 3.878 18.414 26.289 24.037 34.725 38.693zM250.553 374.607c-5.601 30.841-5.201 71.355-24.802 88.297-17.503 15.128-96.235 25.429-126.99 26.786-6.894-8.539-16.518-14.504-20.833-25.794-10.254-26.819-2.957-74.498 1.983-104.17 13.566-81.459 18.692-165.495 33.732-244.059 5.043-26.337 5.653-88.493 21.826-101.195 21.132-16.597 93.249-14.668 122.029-5.953 15.221 22.539 9.342 81.698 8.929 117.067-0.996 85.255-2.189 173.653-15.875 249.020z"  horiz-adv-x="1024" />

    
    <glyph glyph-name="eye" unicode="&#59017;" d="M510.544347 507.561154c33.059953 0 61.659315-12.082176 85.800132-36.244482 24.139793-24.168446 36.220946-52.768831 36.249599-85.801155s-12.05864-61.632709-36.249599-85.801155c-24.191982-24.163329-52.792367-36.245506-85.800132-36.245506-33.006741 0-61.606103 12.082176-85.799108 36.245506-24.194028 24.167422-36.276205 52.767807-36.248575 85.801155 0.028653 33.032324 12.109806 61.632709 36.248575 85.801155C448.880939 495.478977 477.481324 507.561154 510.544347 507.561154L510.544347 507.561154zM510.544347 181.452911c55.951313 0 103.942327 20.029172 143.977136 60.087517 40.030715 40.058344 60.058864 88.049359 60.087517 143.974066s-20.001543 103.916744-60.087517 143.974066-88.082104 60.087517-143.977136 60.087517c-55.899124 0-103.888092-20.030196-143.975089-60.087517-40.085974-40.057321-60.116169-88.049359-60.087517-143.974066 0.027629-55.924707 20.056801-103.916744 60.087517-143.974066C406.59895 201.483106 454.588941 181.452911 510.544347 181.452911L510.544347 181.452911zM510.544347 690.633702c100.43341 0 191.331653-27.976168 272.694729-83.929528 81.364099-55.952336 139.854235-129.694851 175.466314-221.231637-35.612079-91.536786-94.102215-165.279301-175.466314-221.231637s-172.262342-83.924411-272.694729-83.924411c-100.43034 0-191.329607 27.971052-272.692682 83.924411-81.369216 55.95336-139.854235 129.694851-175.466314 221.231637 35.612079 91.537809 94.097098 165.279301 175.466314 221.231637C319.21474 662.657534 410.114007 690.633702 510.544347 690.633702L510.544347 690.633702zM510.544347 690.633702"  horiz-adv-x="1024" />

    
    <glyph glyph-name="pinglun1" unicode="&#58887;" d="M512.001 0.004c-32.743 0-64.664 2.955-95.699 8.094l-224.304-136.098v226.579c-116.947 82.111-191.998 208.018-191.998 349.418 0 247.428 229.233 448.003 512.001 448.003 282.77 0 512.001-200.575 512.001-448.003 0-247.421-229.229-447.993-512.001-447.993zM512.001 831.996c-247.423 0-448.001-171.922-448.001-383.999 0-130.116 75.696-244.921 191.206-314.369l-2.019-148.433 150.639 90.546c34.703-7.387 70.804-11.743 108.174-11.743 247.426 0 448.001 171.922 448.001 383.999s-200.573 383.999-447.999 383.999zM736.001 479.999h-448.001c-17.672 0-32 14.326-32 31.998s14.328 32.002 32 32.002h448.001c17.672 0 32.002-14.33 32.002-32.002s-14.33-31.998-32.002-31.998zM352.001 351.995h320.001c17.672 0 32-14.32 32-31.998 0-17.668-14.328-31.992-32-31.992h-320.001c-17.674 0-32 14.324-32 31.992-0 17.678 14.326 31.998 32 31.998z"  horiz-adv-x="1025" />

    
    <glyph glyph-name="qianmoney47" unicode="&#59078;" d="M441.07776 573.1328l141.84448 0 36.72064 73.4208c5.79584 11.63264-0.08192 21.15584-13.08672 21.15584l-189.11232 0c-13.0048 0-18.88256-9.50272-13.08672-21.15584L441.07776 573.1328zM473.98912 383.93856c0-12.20608 8.23296-22.38464 24.69888-30.55616l0 56.29952C482.22208 406.7328 473.98912 398.1312 473.98912 383.93856zM524.61568 293.33504l0-53.80096c16.93696 2.60096 25.3952 11.07968 25.3952 25.3952C550.01088 276.52096 541.55264 285.98272 524.61568 293.33504zM653.43488 525.84448 370.56512 525.84448c-57.58976-43.1104-94.98624-111.67744-94.98624-189.1328 0-130.58048 105.79968-236.42112 236.42112-236.42112s236.42112 105.82016 236.42112 236.42112C748.42112 414.18752 711.02464 482.73408 653.43488 525.84448zM578.4576 219.89376c-12.57472-12.02176-30.5152-19.33312-53.84192-21.93408l0-38.54336L498.688 159.41632l0 37.4784c-24.04352 0.12288-46.44864 5.57056-67.11296 16.34304l0 49.21344c6.84032-5.55008 17.1008-10.71104 30.72-15.44192 13.59872-4.73088 25.72288-7.45472 36.39296-8.17152l0 64.65536c-27.70944 10.30144-46.63296 21.46304-56.75008 33.4848-10.11712 12.00128-15.17568 26.66496-15.17568 43.95008 0 18.59584 6.57408 34.44736 19.72224 47.53408 13.14816 13.08672 30.53568 20.6848 52.224 22.8352l0 33.03424 25.94816 0 0-32.33792c25.00608-1.16736 43.6224-5.20192 55.93088-12.0832l0-47.96416c-16.56832 10.07616-35.2256 16.22016-55.93088 18.47296l0-67.31776c25.94816-9.37984 44.52352-20.04992 55.76704-32.07168 11.264-12.02176 16.87552-26.54208 16.87552-43.60192C597.25824 247.74656 590.97088 231.91552 578.4576 219.89376z"  horiz-adv-x="1024" />

    
    <glyph glyph-name="info" unicode="&#59005;" d="M512 800c-229.76 0-416-186.24-416-416s186.24-416 416-416 416 186.24 416 416-186.24 416-416 416zM577.248 230.94399999999996c-31.392-47.136-63.328-83.456-117.056-83.456-36.672 5.984-51.744 32.256-43.808 59.04l69.12 228.928c1.696 5.6-1.12 11.584-6.24 13.408-5.088 1.792-15.072-4.832-23.712-14.304l-41.792-50.272c-1.12 8.448-0.128 22.4-0.128 28.032 31.392 47.136 82.976 84.32 117.952 84.32 33.248-3.392 48.992-29.984 43.2-59.2l-69.6-230.048c-0.928-5.184 1.824-10.464 6.528-12.128 5.12-1.792 15.872 4.832 24.544 14.304l41.76 50.24c1.12-8.448-0.768-23.232-0.768-28.864zM567.936 529.952c-26.432 0-47.872 19.264-47.872 47.616s21.44 47.584 47.872 47.584 47.872-19.264 47.872-47.584c0-28.384-21.44-47.616-47.872-47.616z"  horiz-adv-x="1024" />

    
    <glyph glyph-name="yonghu" unicode="&#58883;" d="M1021.942 372.859v-254.935h-58.181c-8.884 23.739-19.151 43.545-31.385 59.42-44.637 58.764-121.824 74.493-189.617 88.765-27.088 5.534-52.793 10.923-73.109 18.35-8.738 3.131-14.854 6.262-19.078 8.519 21.408 23.447 39.831 52.138 53.302 84.542 16.894 39.685 25.705 82.866 25.705 124.956 0 64.298-4.078 137.917-33.497 196.972-13.035 25.777-33.714 54.613-66.556 75.366 15.655 56.507 51.483 94.081 127.504 94.081 119.494 0 137.844-96.702 137.844-213.283 0-61.094-27.234-123.717-67.502-159.325-4.005-3.641-6.262-8.811-6.262-14.053-0.146-14.491 0.291-33.497 5.825-40.633 33.788-45.074 125.611-46.458 195.006-68.74M89.147 175.523c43.472 61.968 122.916 77.77 192.894 91.969 27.453 5.389 53.157 10.777 73.619 17.914 8.447 2.986 14.418 5.68 18.569 8.083-21.408 23.447-39.175 51.846-52.939 83.667-16.675 39.468-25.777 81.847-26.361 123.062-0.655 54.541 2.767 96.047 9.83 131.291 10.34 50.682 29.273 89.275 58.036 118.329 9.539 9.903 20.243 18.205 31.603 25.341-16.020 56.798-51.118 94.372-125.611 94.372-123.135 0-140.465-97.794-139.3-215.249 0.655-59.856 27.817-122.188 67.648-157.65 4.078-3.568 6.335-8.811 6.335-14.346 0-14.491-0.946-33.35-6.044-40.050-32.987-45.002-125.538-46.021-195.37-67.574v-256.464h58.327c8.156 22.719 17.84 41.506 28.763 57.308M933.687-78.757c0.582-12.379-9.321-22.719-21.554-22.719h-799.393c-12.379 0-22.137 10.413-21.482 22.719 2.839 48.933 13.18 163.549 50.098 216.341 56.069 79.808 241.172 52.356 293.019 123.717 5.899 7.792 6.845 28.836 6.845 45.074 0 6.116-2.548 11.942-7.063 16.165-44.492 39.759-74.493 109.373-75.148 176.729-1.311 131.801 17.914 241.245 154.519 241.245 132.455 0 152.626-108.281 152.626-239.353 0-68.594-30.146-138.645-74.638-178.622-4.297-3.932-7.063-9.977-7.136-15.655-0.364-16.165 0.655-37.647 6.262-45.657 52.501-71.361 232.070-45.803 291.563-123.717 38.812-51.628 48.861-167.263 51.483-216.269z"  horiz-adv-x="1024" />

    
    <glyph glyph-name="qq" unicode="&#58915;" d="M902.826667 252.586667 901.12 266.24 897.706667 281.6 896 288.426667 894.293333 296.96 890.88 303.786667 889.173333 312.32 885.76 320.853333 882.346667 329.386667 875.52 343.04 870.4 353.28 865.28 365.226667 860.16 373.76 855.04 382.293333 849.92 390.826667 841.386667 402.773333 831.146667 419.84 829.44 423.253333 827.733333 424.96 827.733333 426.666667 829.44 431.786667 832.853333 436.906667 834.56 447.146667 836.266667 452.266667 836.266667 457.386667 836.266667 460.8 836.266667 465.92 836.266667 469.333333 834.56 474.453333 832.853333 481.28 831.146667 489.813333 829.44 496.64 826.026667 503.466667 822.613333 508.586667 820.906667 515.413333 817.493333 520.533333 814.08 527.36 812.373333 530.773333 810.666667 532.48 808.96 547.84 807.253333 556.373333 805.546667 568.32 803.84 580.266667 800.426667 595.626667 798.72 602.453333 797.013333 609.28 793.6 617.813333 791.893333 626.346667 788.48 633.173333 785.066667 641.706667 778.24 657.066667 774.826667 665.6 769.706667 674.133333 764.586667 680.96 761.173333 689.493333 754.346667 698.026667 749.226667 704.853333 742.4 713.386667 735.573333 720.213333 728.746667 727.04 720.213333 733.866667 715.093333 737.28 711.68 740.693333 703.146667 745.813333 692.906667 752.64 682.666667 759.466667 672.426667 764.586667 660.48 769.706667 648.533333 774.826667 638.293333 778.24 624.64 781.653333 614.4 785.066667 600.746667 788.48 590.506667 790.186667 576.853333 791.893333 564.906667 793.6 552.96 795.306667 541.013333 795.306667 529.066667 795.306667 517.12 795.306667 505.173333 795.306667 493.226667 793.6 481.28 791.893333 469.333333 788.48 459.093333 786.773333 447.146667 785.066667 436.906667 781.653333 426.666667 776.533333 416.426667 773.12 406.186667 769.706667 395.946667 764.586667 387.413333 759.466667 378.88 754.346667 370.346667 749.226667 361.813333 742.4 356.693333 735.573333 344.746667 727.04 336.213333 716.8 327.68 708.266667 320.853333 699.733333 314.026667 689.493333 307.2 680.96 302.08 672.426667 298.666667 667.306667 295.253333 663.893333 290.133333 653.653333 285.013333 645.12 281.6 638.293333 278.186667 629.76 274.773333 621.226667 271.36 614.4 269.653333 605.866667 266.24 599.04 262.826667 585.386667 261.12 573.44 259.413333 563.2 257.706667 554.666667 257.706667 547.84 257.706667 541.013333 257.706667 535.893333 254.293333 534.186667 252.586667 530.773333 250.88 527.36 249.173333 523.946667 247.466667 515.413333 245.76 508.586667 244.053333 501.76 244.053333 496.64 244.053333 493.226667 238.933333 484.693333 235.52 477.866667 233.813333 471.04 232.106667 465.92 230.4 459.093333 228.693333 453.973333 228.693333 448.853333 228.693333 443.733333 228.693333 440.32 228.693333 436.906667 230.4 430.08 232.106667 424.96 228.693333 423.253333 221.866667 418.133333 211.626667 407.893333 204.8 402.773333 199.68 397.653333 194.56 392.533333 191.146667 389.12 184.32 382.293333 177.493333 373.76 172.373333 366.933333 165.546667 356.693333 158.72 348.16 151.893333 337.92 146.773333 329.386667 143.36 319.146667 138.24 310.613333 134.826667 300.373333 131.413333 291.84 129.706667 283.306667 126.293333 273.066667 124.586667 266.24 122.88 257.706667 121.173333 249.173333 119.466667 240.64 119.466667 225.28 119.466667 211.626667 119.466667 204.8 119.466667 199.68 122.88 187.733333 122.88 184.32 124.586667 179.2 126.293333 174.08 128 170.666667 129.706667 165.546667 131.413333 163.84 133.12 162.133333 133.12 160.426667 134.826667 160.426667 134.826667 160.426667 141.653333 162.133333 146.773333 163.84 151.893333 165.546667 158.72 168.96 163.84 172.373333 167.253333 175.786667 172.373333 180.906667 177.493333 186.026667 180.906667 191.146667 184.32 196.266667 187.733333 199.68 189.44 204.8 194.56 211.626667 194.56 215.04 196.266667 216.746667 196.266667 218.453333 196.266667 220.16 197.973333 220.16 199.68 221.866667 199.68 221.866667 199.68 220.16 201.386667 220.16 201.386667 220.16 204.8 209.92 206.506667 201.386667 209.92 192.853333 213.333333 186.026667 216.746667 177.493333 220.16 170.666667 223.573333 163.84 226.986667 157.013333 232.106667 151.893333 233.813333 146.773333 242.346667 136.533333 250.88 128 257.706667 121.173333 264.533333 114.346667 269.653333 109.226667 278.186667 102.4 281.6 100.693333 283.306667 98.986667 283.306667 97.28 283.306667 97.28 281.6 97.28 279.893333 95.573333 274.773333 95.573333 267.946667 95.573333 262.826667 93.866667 257.706667 92.16 252.586667 92.16 247.466667 90.453333 244.053333 87.04 240.64 85.333333 235.52 83.626667 233.813333 81.92 230.4 80.213333 226.986667 78.506667 223.573333 73.386667 221.866667 71.68 220.16 68.266667 218.453333 64.853333 216.746667 59.733333 215.04 56.32 215.04 52.906667 215.04 47.786667 215.04 46.08 213.333333 42.666667 213.333333 37.546667 213.333333 34.133333 213.333333 32.426667 213.333333 29.013333 215.04 25.6 216.746667 20.48 218.453333 17.066667 220.16 15.36 221.866667 11.946667 223.573333 10.24 226.986667 6.826667 228.693333 5.12 233.813333 0 240.64-3.413333 247.466667-6.826667 254.293333-10.24 262.826667-13.653333 271.36-15.36 279.893333-18.773333 290.133333-20.48 300.373333-22.186667 308.906667-23.893333 319.146667-23.893333 339.626667-27.306667 360.106667-27.306667 378.88-27.306667 387.413333-27.306667 395.946667-27.306667 404.48-27.306667 413.013333-25.6 419.84-25.6 426.666667-23.893333 438.613333-22.186667 445.44-20.48 453.973333-18.773333 467.626667-11.946667 474.453333-10.24 479.573333-6.826667 489.813333-1.706667 500.053333 3.413333 505.173333 6.826667 510.293333 11.946667 518.826667 10.24 523.946667 10.24 535.893333 10.24 541.013333 10.24 546.133333 10.24 549.546667 8.533333 552.96 6.826667 559.786667 5.12 564.906667 3.413333 576.853333 0 590.506667-5.12 602.453333-8.533333 614.4-11.946667 626.346667-13.653333 640-15.36 651.946667-17.066667 663.893333-18.773333 675.84-20.48 687.786667-20.48 699.733333-20.48 711.68-20.48 721.92-20.48 732.16-20.48 744.106667-18.773333 754.346667-17.066667 762.88-15.36 773.12-13.653333 781.653333-11.946667 785.066667-10.24 790.186667-8.533333 798.72-5.12 805.546667-1.706667 812.373333 1.706667 817.493333 5.12 822.613333 8.533333 826.026667 10.24 827.733333 13.653333 831.146667 18.773333 834.56 23.893333 836.266667 25.6 836.266667 27.306667 837.973333 30.72 839.68 34.133333 839.68 35.84 839.68 39.253333 839.68 42.666667 837.973333 46.08 836.266667 51.2 836.266667 54.613333 832.853333 58.026667 831.146667 61.44 827.733333 64.853333 824.32 68.266667 817.493333 75.093333 808.96 80.213333 800.426667 85.333333 791.893333 90.453333 773.12 100.693333 768 104.106667 766.293333 104.106667 764.586667 105.813333 774.826667 116.053333 779.946667 119.466667 783.36 124.586667 788.48 134.826667 795.306667 143.36 800.426667 151.893333 805.546667 160.426667 812.373333 177.493333 817.493333 192.853333 820.906667 201.386667 822.613333 204.8 824.32 208.213333 826.026667 209.92 827.733333 209.92 827.733333 209.92 832.853333 199.68 837.973333 189.44 841.386667 184.32 844.8 179.2 848.213333 172.373333 851.626667 167.253333 855.04 163.84 856.746667 160.426667 860.16 158.72 861.866667 157.013333 863.573333 157.013333 866.986667 153.6 870.4 153.6 870.4 153.6 872.106667 153.6 875.52 153.6 877.226667 155.306667 880.64 157.013333 882.346667 158.72 885.76 162.133333 887.466667 165.546667 890.88 167.253333 892.586667 170.666667 894.293333 174.08 896 179.2 897.706667 182.613333 899.413333 192.853333 902.826667 203.093333 902.826667 213.333333 904.533333 220.16 904.533333 225.28 904.533333 232.106667 904.533333 238.933333Z"  horiz-adv-x="1024" />

    
    <glyph glyph-name="huanbao" unicode="&#58886;" d="M591.416889 837.916444c94.264889 0 181.873778-28.899556 254.520889-78.279111 22.641778 8.419556 45.568 15.416889 68.608 21.048889C826.368 852.707556 713.898667 896 591.416889 896 457.841778 896 336.384 844.174222 245.134222 760.092444c22.186667-5.290667 44.202667-11.889778 66.048-19.740444C388.437333 801.28 485.603556 837.916444 591.416889 837.916444M1028.721778 503.978667C1039.246222 465.692444 1045.333333 425.585778 1045.333333 384c0-246.670222-197.859556-447.544889-443.164444-453.347556l0 497.777778c100.750222-19.512889 208.384-6.940444 306.289778 44.487111 108.316444 56.888889 184.604444 150.300444 222.833778 257.024-109.568 29.127111-229.774222 19.342222-338.033778-37.546667-106.552889-55.978667-181.987556-147.399111-220.842667-252.017778l-3.982222 0c-38.798222 104.618667-114.232889 196.039111-220.842667 252.017778-108.259556 56.888889-228.522667 66.673778-338.090667 37.546667C47.672889 623.274667 124.017778 529.863111 232.334222 472.974222 330.24 421.546667 437.873778 408.974222 538.567111 428.487111l0-495.047111c-225.450667 26.282667-401.066667 218.168889-401.066667 450.56 0 30.776889 3.185778 60.871111 9.045333 89.941333C129.308444 487.253333 112.810667 501.191111 97.28 515.982222 86.016 473.827556 79.416889 429.681778 79.416889 384c0-282.339556 229.660444-512 512-512 282.339556 0 512 229.660444 512 512 0 57.059556-9.841778 111.786667-27.136 163.100444C1061.262222 532.024889 1045.504 517.575111 1028.721778 503.978667"  horiz-adv-x="1138" />

    
    <glyph glyph-name="filter" unicode="&#59058;" d="M889.6 718.933333 618.666667 448l0-247.466667c0-8.533333-6.4-17.066667-12.8-19.2 0 0 0-2.133333-2.133333-2.133333L445.866667 21.333333c-4.266667-6.4-10.666667-12.8-19.2-12.8 0 0 0 0 0 0-6.4 0-10.666667 2.133333-17.066667 6.4-2.133333 2.133333-2.133333 2.133333-2.133333 4.266667C405.333333 25.6 405.333333 27.733333 405.333333 32L405.333333 450.133333 134.4 721.066667c0 0 0 0 0 0C130.133333 725.333333 128 729.6 128 736 128 742.4 130.133333 746.666667 134.4 750.933333c0 0 0 0 0 0 4.266667 4.266667 12.8 6.4 19.2 6.4L874.666667 757.333333c0 0 2.133333 0 2.133333 0 2.133333 0 4.266667 0 6.4-2.133333 2.133333 0 2.133333-2.133333 2.133333-2.133333 2.133333 0 2.133333-2.133333 4.266667-2.133333C898.133333 742.4 898.133333 727.466667 889.6 718.933333zM202.666667 714.666667l238.933333-238.933333c4.266667-4.266667 6.4-10.666667 6.4-17.066667L448 85.333333l125.866667 125.866667c0 0 2.133333 2.133333 2.133333 2.133333L576 458.666667c0 0 0 2.133333 0 2.133333 0 4.266667 2.133333 10.666667 6.4 14.933333L823.466667 714.666667 202.666667 714.666667z"  horiz-adv-x="1024" />

    
    <glyph glyph-name="duihua" unicode="&#58927;" d="M214.664667-96.931401c76.309023 0 75.119893 152.612817 75.119893 152.612817s149.039398 147.83807 149.039398 0C438.822934-92.163817 214.664667-96.931401 214.664667-96.931401L214.664667-96.931401zM64.234539 425.082674c0 247.257383 200.451384 447.696462 447.717876 447.696462 247.264445 0 447.710712-200.440102 447.710712-447.696462 0-247.255337-200.448314-447.699532-447.712759-447.699532C264.683876-22.617881 64.234539 177.827337 64.234539 425.082674L64.234539 425.082674zM750.016959 493.041462c-37.532316 0-67.956456-30.423917-67.956456-67.957765 0-37.537941 30.42414-67.961858 67.956456-67.961858 37.534363 0 67.962596 30.423917 67.962596 67.961858C817.981602 462.616522 787.551322 493.041462 750.016959 493.041462L750.016959 493.041462zM506.787576 487.080703c-37.539479 0-67.964643-30.425963-67.964643-67.963904 0-37.530778 30.425163-67.953671 67.964643-67.953671 37.532316 0 67.960549 30.422893 67.960549 67.953671C574.748125 456.653717 544.321939 487.080703 506.787576 487.080703L506.787576 487.080703zM258.782228 487.080703c-37.532316 0-67.958502-30.425963-67.958502-67.963904 0-37.530778 30.426187-67.953671 67.958502-67.953671 37.533339 0 67.964643 30.422893 67.964643 67.953671C326.745847 456.653717 296.315567 487.080703 258.782228 487.080703L258.782228 487.080703z"  horiz-adv-x="1024" />

    
    <glyph glyph-name="weibo" unicode="&#58940;" d="M437.248 423.594667c-131.072-6.144-237.226667-76.458667-237.226667-163.84 0-87.381333 106.154667-153.258667 237.226667-147.114667 131.072 6.144 237.568 88.064 237.568 175.786667C674.816 375.466667 568.661333 429.738667 437.248 423.594667L437.248 423.594667 437.248 423.594667zM526.677333 203.093333c-40.277333-51.882667-119.466667-77.141333-196.949333-35.498667C293.205333 187.733333 294.570667 226.986667 294.570667 226.986667s-15.36 123.562667 116.736 138.922667C543.402667 381.269333 566.954667 254.976 526.677333 203.093333L526.677333 203.093333 526.677333 203.093333zM438.272 286.037333c-8.533333-6.144-10.24-17.749333-5.461333-25.258667 4.437333-7.509333 14.677333-8.192 22.869333-2.048 8.192 6.485333 11.264 17.749333 6.826667 25.258667C458.069333 291.157333 448.170667 293.205333 438.272 286.037333L438.272 286.037333 438.272 286.037333zM375.808 268.970667c-24.576-2.389333-42.325333-23.893333-42.325333-44.714667 0-20.48 19.797333-34.816 44.373333-31.744 24.576 2.730667 44.373333 21.845333 44.373333 42.325333C422.570667 255.317333 404.138667 271.701333 375.808 268.970667L375.808 268.970667 375.808 268.970667zM845.824 860.16 181.248 860.16c-80.213333 0-145.408-65.194667-145.408-145.408l0-664.234667c0-80.213333 65.194667-145.408 145.408-145.408l664.234667 0c80.213333 0 145.408 65.194667 145.408 145.408L990.890667 714.752C991.232 794.965333 926.037333 860.16 845.824 860.16L845.824 860.16 845.824 860.16zM791.893333 230.058667c-53.930667-114.688-232.448-170.666667-364.544-160.426667-125.610667 9.898667-287.061333 51.541333-303.786667 203.434667 0 0-8.874667 68.949333 58.026667 157.696 0 0 95.914667 134.144 207.530667 172.373333 111.957333 37.888 124.928-26.282667 124.928-64.512-5.802667-32.426667-17.066667-51.2 24.917333-38.229333 0 0 109.909333 50.858667 155.306667 5.802667 36.522667-36.522667 6.144-86.698667 6.144-86.698667s-15.018667-16.725333 16.042667-22.869333C747.861333 390.485333 846.165333 345.088 791.893333 230.058667L791.893333 230.058667 791.893333 230.058667zM683.690667 547.498667c-11.946667 0-21.504 9.557333-21.504 21.504 0 11.946667 9.557333 21.845333 21.504 21.845333 0 0 134.826667 24.917333 118.784-119.808 0-0.682667 0-1.365333-0.341333-2.389333-1.365333-10.24-10.581333-18.090667-21.162667-18.090667-11.946667 0-21.845333 9.557333-21.845333 21.504C759.125333 472.064 780.288 568.661333 683.690667 547.498667L683.690667 547.498667 683.690667 547.498667zM911.36 431.445333 911.36 431.445333c-3.754667-24.576-16.042667-26.624-30.378667-26.624-17.408 0-31.402667 10.922667-31.402667 28.330667 0 15.018667 6.144 30.378667 6.144 30.378667 1.706667 6.485333 16.384 45.738667-9.557333 104.448-47.786667 80.554667-144.384 81.578667-155.989333 77.141333-11.605333-4.437333-28.330667-6.826667-28.330667-6.826667-17.408 0-31.402667 14.336-31.402667 31.402667 0 14.336 9.557333 26.624 22.869333 30.378667 0 0 0.341333 0.341333 0.682667 0.682667 1.024 0.341333 2.048 1.024 3.072 1.365333 13.312 2.730667 61.44 11.946667 107.861333 1.024C848.554667 683.690667 962.901333 603.136 911.36 431.445333L911.36 431.445333 911.36 431.445333zM911.36 431.445333"  horiz-adv-x="1024" />

    
    <glyph glyph-name="fenxiang2" unicode="&#58942;" d="M1016.1904 802.648c-7.7152 8.776-19.96 12.7344-31.7152 9.552L23.1664 552.4784c-11.3072-3.0608-19.8992-12.0816-22.4288-23.5104-2.5104-11.4288 1.4896-23.2256 10.4704-30.776L239.008 306.8816l104.5536-290.456c4.1232-11.3872 14.552-19.4704 26.4704-20.5712l3.1232-0.1632c10.96 0 21.2448 5.8784 26.8576 15.3472l63.0016 106.2064 181.2496-154.984c5.632-4.8576 12.8976-7.552 20.368-7.552 2.6944 0 5.1424 0.2864 7.3056 0.8576 9.7152 2.3264 17.8368 9.224 21.7152 18.5312l327.968 795.856C1026.192 780.8928 1024.0688 793.7504 1016.1904 802.648zM617.0784 469.008l-119.6976-158.7792c-5.0608-6.6944-7.2048-14.9392-6.0416-23.2256 1.1632-8.2864 5.4896-15.6336 12.2048-20.736 13.3264-10 33.8176-7.1024 43.8784 6.2048L745.8992 535.744c8.7344 11.6736 8.368 27.6336-0.8576 38.736-9.0608 11.0208-25.3072 14.5312-37.96 8.2864l-439.44-214.6576c-0.8368-0.408-1.632-0.8576-2.4288-1.3472L97.4736 507.6208l841.9792 227.4336L652.1408 37.976l-176.6976 151.1472c-5.6736 4.816-12.9184 7.5104-20.3888 7.5104-1.6128 0-3.2448-0.1632-5.1424-0.4496-9.1424-1.5104-17.1024-6.9792-21.7968-14.8976l-48.0832-81.0224-77.4304 215.1488L617.0784 469.008z"  horiz-adv-x="1025" />

    
    <glyph glyph-name="xunhuan" unicode="&#58934;" d="M512.271856 756.363249 512.271856 896 326.090231 709.818376l186.181624-186.181624L512.271856 663.272437c153.599467 0 279.272437-125.67297 279.272437-279.272437 0-46.544873-13.963782-93.090812-32.582157-130.327563l69.817843-69.817843c32.582157 60.508655 55.854061 125.67297 55.854061 200.145406C884.635104 588.8 717.071856 756.363249 512.271856 756.363249zM512.271856 104.727563c-153.599467 0-279.272437 125.67297-279.272437 279.272437 0 46.545939 13.963782 93.090812 32.582157 130.327563l-69.817843 69.817843c-32.582157-60.508655-55.854061-125.67297-55.854061-200.145406 0-204.8 167.563249-372.363249 372.363249-372.363249l0-139.636751 186.181624 186.181624-186.181624 186.181624L512.272922 104.727563z"  horiz-adv-x="1024" />

    
    <glyph glyph-name="suo" unicode="&#58912;" d="M763.2 411.92l-27.904 0 0 223.296c0 107.904-99.984 195.376-223.296 195.376s-223.296-87.472-223.296-195.376l0-223.296-27.904 0c-46.256 0-83.728-37.472-83.728-83.744l0-307.024c0-46.224 37.488-83.728 83.728-83.728l502.4 0c46.272 0 83.728 37.52 83.728 83.728l0 307.024c0.016 46.272-37.456 83.744-83.728 83.744zM567.824 120.368l0-43.408c0-30.816-25.008-55.824-55.824-55.824-30.832 0-55.808 25.008-55.808 55.824l0 43.408c-33.232 19.36-55.824 54.944-55.824 96.16 0 61.664 49.984 111.648 111.648 111.648s111.648-49.968 111.648-111.648c-0.016-41.216-22.624-76.8-55.84-96.16zM623.648 439.824c0-9.84-2.672-19.152-6.848-27.904l-209.6 0c-4.176 8.752-6.848 18.064-6.848 27.904l0 195.392c0 46.272 49.984 83.728 111.648 83.728s111.648-37.472 111.648-83.728l0-195.392z"  horiz-adv-x="1024" />

    
    <glyph glyph-name="biaotitubiao" unicode="&#58930;" d="M79.084173-53.307857l362.873588 0L441.957761 309.557544 79.084173 309.557544 79.084173-53.307857zM79.084173 430.512337l362.873588 0L441.957761 793.377738 79.084173 793.377738 79.084173 430.512337zM562.904367-53.307857l362.873588 0L925.777955 309.557544 562.904367 309.557544 562.904367-53.307857zM1000.923422 611.945549 744.344742 868.531392 487.758899 611.945549l256.585843-256.585843L1000.923422 611.945549z"  horiz-adv-x="1024" />

    
    <glyph glyph-name="alipay" unicode="&#58894;" d="M850.78189 827.418019 171.579797 827.418019c-57.7114 0-104.492866-46.781466-104.492866-104.492866l0-679.202093c0-57.70833 46.781466-104.492866 104.492866-104.492866l679.202093 0c57.70833 0 104.492866 46.783513 104.492866 104.492866L955.274756 722.925153C955.274756 780.636552 908.49022 827.418019 850.78189 827.418019zM840.98578-24.849712 181.375907-24.849712c-43.283806 0-78.369905 35.0861-78.369905 78.369905L103.006002 713.129043c0 43.283806 35.0861 78.369905 78.369905 78.369905l659.609873 0c43.283806 0 78.369905-35.0861 78.369905-78.369905l0-545.873482c-53.169967 16.593933-245.428735 89.183182-282.662755 102.68366 27.517727 47.91222 49.503461 102.713336 63.902402 162.431439L543.140231 432.370661l0 54.114478 193.152115 0 0 33.087583L543.140231 519.572722l0 90.218768-74.299193 0c-13.291724 0-14.994506-12.233626-14.994506-12.233626l0-77.985142L272.79399 519.572722l0-33.087583L453.93249 486.485139l0-54.114478L305.427224 432.370661l0-30.072923 300.079426 0c-10.990309-38.087457-25.561166-73.847915-43.026956-106.333794-67.737754 22.578228-105.736183 38.257326-188.721199 46.185902-157.455101 14.997576-193.752796-72.382541-199.376886-125.892245-8.604982-81.603553 62.711274-148.123572 169.557744-148.123572 106.838284 0 177.731914 49.803289 245.379617 132.784212 79.122035-38.293141 270.815939-129.016399 329.677535-154.817018C915.25632 6.297682 881.765555-24.849712 840.98578-24.849712zM523.033287 234.181833c-54.44603-71.780837-121.412211-114.521267-190.857862-114.521267-112.89421 0-130.696668 72.209602-124.818797 102.280478 5.963829 30.075992 38.597063 69.198012 101.389178 69.198012C380.99634 291.049005 445.499423 272.439158 523.033287 234.181833z"  horiz-adv-x="1024" />

    
    <glyph glyph-name="jia1" unicode="&#58911;" d="M832 320 576 320 576 64C576 28.672 547.328 0 512 0 476.608 0 448 28.672 448 64L448 320 192 320C156.608 320 128 348.672 128 384 128 419.328 156.608 448 192 448L448 448 448 704C448 739.328 476.608 768 512 768 547.328 768 576 739.328 576 704L576 448 832 448C867.328 448 896 419.328 896 384 896 348.672 867.328 320 832 320Z"  horiz-adv-x="1024" />

    
    <glyph glyph-name="edit" unicode="&#58890;" d="M512 896C229.234215 896 0 666.773662 0 384c0-282.765785 229.234215-512 512-512 282.773662 0 512 229.234215 512 512 0 282.773662-229.226338 512-512 512zM191.361969 71.238892l72.176246 203.004062 130.827816-130.827816-203.004062-72.176246z m229.793477 98.965662L290.327631 301.032369l334.855877 334.855877 130.827815-130.827815-334.855877-334.855877z m396.209231 396.209231l-34.563939-34.563939L651.972923 662.677662l34.563939 34.563938a52.145231 52.145231 0 0 0 73.735876 0l57.091939-57.091938a52.145231 52.145231 0 0 0 0-73.735877z"  horiz-adv-x="1024" />

    
    <glyph glyph-name="youjian" unicode="&#58891;" d="M161.6 123h700.8l3.1 107-192 192c-48.7-24.1-103.4-38-161.5-38s-112.7 13.9-161.5 38l-192-192 3.1-107zM512 442c132.8 0 245.9 84.8 288.8 203H223.2c42.9-118.2 156-203 288.8-203zM311.2 444.2C240.4 491 187.2 561.9 162.4 645h-15.8l10.2-355.2 154.4 154.4zM712.7 444.2l154.5-154.4L877.4 645h-15.8c-24.8-83.1-78-154-148.9-200.8z"  horiz-adv-x="1024" />

    
    <glyph glyph-name="biyan" unicode="&#59417;" d="M707.910948 636.611322l91.052762 130.717134-50.761104 33.895995L648.810922 658.53668c-41.478693 12.288884-87.363743 19.631106-137.814786 19.631106-292.827255 0-448.087365-277.695626-448.087365-277.695626s94.688569-139.408073 260.782422-208.68488L193.338357 4.650159l50.761104-33.897018 139.511427 200.285582c39.33589-10.891048 81.872682-17.397229 127.385249-17.397229 280.467763 0 448.125227 246.829642 448.125227 246.829642S880.407628 559.151136 707.910948 636.611322zM349.59619 415.658024c0 87.117127 72.386634 157.756977 161.677263 157.756977 24.313755 0 47.367821-5.247514 68.054979-14.629185l-55.680137-79.935564c-4.101411 0.733711-8.318456 1.136893-12.633738 1.136893-39.09132 0-70.781066-31.432896-70.781066-70.197782 0-13.231349 3.697205-25.605168 10.115382-36.169781l-50.398854-72.353888C368.935654 330.009342 349.59619 370.630505 349.59619 415.658024zM511.273453 257.90207c-21.002336 0-41.068348 3.910053-59.478649 11.022031l49.678446 71.319325c3.122107-0.417509 6.303566-0.652869 9.541307-0.652869 39.092343 0 70.780043 31.432896 70.780043 70.197782 0 12.124132-3.099594 23.530926-8.555863 33.483602l55.94108 80.310094c27.14115-28.218692 43.771923-66.176189 43.771923-107.922988C672.948669 328.537827 600.563058 257.90207 511.273453 257.90207z"  horiz-adv-x="1024" />

    
    <glyph glyph-name="xiaolian-" unicode="&#58922;" d="M371.044 547.679c22.973 0 36.607-48.99 39.31-71.347 1.418-11.993 11.604-20.823 23.41-20.823 0.908 0 1.842 0.046 2.774 0.153 12.949 1.522 22.216 13.246 20.705 26.194-4.911 41.978-28.602 113.041-86.198 113.041-57.995 0-80.175-71.394-84.13-113.585-1.229-12.973 8.309-24.494 21.295-25.71 12.973-1.216 24.481 8.311 25.711 21.297 2.087 22.181 14.331 70.78 37.123 70.78zM514.912 140.191c155.052 0 167.931 112.325 168.06 113.478 1.266 12.857-8.052 24.202-20.896 25.632a23.73 23.73 0 0 1-26.062-20.706c-0.364-2.9-10.154-71.171-121.103-71.171-110.483 0-120.646 67.676-121.083 71.123-1.405 12.859-12.949 22.24-25.793 20.931-12.973-1.285-22.453-12.831-21.177-25.816 0.106-1.121 12.985-113.471 168.054-113.471zM730.795 476.356c1.416-12.006 11.604-20.847 23.407-20.847 0.918 0 1.841 0.046 2.773 0.165 12.96 1.522 22.227 13.246 20.709 26.194-4.914 41.978-28.604 113.043-86.213 113.043-57.986 0-80.165-71.396-84.128-113.584-1.216-12.975 8.309-24.495 21.295-25.71 13.146-1.159 24.49 8.311 25.72 21.294 2.091 22.181 14.322 70.782 37.125 70.782 22.973-0.001 36.607-48.979 39.312-71.337zM208.768 188.889c-46.429 62.225-73.947 139.261-73.947 222.602 0 206.074 168.123 373.724 374.789 373.724 206.667 0 374.789-167.649 374.789-373.724 0-83.341-27.517-160.377-73.946-222.602 17.528-0.875 34.091-5.242 49.048-12.489 45.511 67.169 72.104 148.086 72.104 235.091 0 232.103-189.31 420.942-422.006 420.942-232.693 0-421.995-188.829-421.995-420.931 0-87.002 26.596-167.925 72.104-235.094 14.967 7.238 31.528 11.619 49.06 12.481zM804.074 188.924c-64.936 0-118.656-48.679-126.517-111.374 0.022 0.014 0.048 0.021 0.07 0.035-0.651-5.22-1.1-10.51-1.1-15.915 0 5.379 0.377 10.673 1.029 15.88-50.557-25.396-107.585-39.785-167.96-39.785-60.365 0-117.391 14.389-167.947 39.785 0.654-5.207 1.029-10.501 1.029-15.88 0 5.396-0.448 10.683-1.099 15.915 0.022-0.014 0.046-0.021 0.069-0.035-7.863 62.695-61.582 111.374-126.509 111.374-70.32 0-127.539-57.086-127.539-127.254 0-70.17 57.218-127.255 127.539-127.255 58.323 0 107.6 39.288 122.728 92.72-0.016 0.005-0.03 0.014-0.042 0.019a130.023 130.023 0 0 1 4.454 24.921 126.446 126.446 0 0 0-4.411-24.939c52.509-23.434 110.595-36.575 171.741-36.575 61.144 0 119.224 13.137 171.733 36.571a126.067 126.067 0 0 0-4.416 24.975c0.669-8.579 2.206-16.92 4.465-24.952-0.017-0.009-0.035-0.014-0.049-0.022 15.126-53.433 64.404-92.716 122.731-92.716 70.32 0 127.539 57.085 127.539 127.255 0.001 70.166-57.217 127.252-127.538 127.252z m-588.933-207.29c-44.292 0-80.32 35.92-80.32 80.044 0 44.13 36.028 80.041 80.32 80.041 44.292 0 80.319-35.924 80.319-80.049 0-44.126-36.04-80.036-80.319-80.036z m588.933 0c-44.289 0-80.329 35.92-80.329 80.044 0 44.13 36.04 80.041 80.329 80.041 44.295 0 80.324-35.924 80.324-80.049 0-44.126-36.029-80.036-80.324-80.036z"  horiz-adv-x="1024" />

    
    <glyph glyph-name="dui" unicode="&#58901;" d="M512 896C229.233778 896 0 666.766222 0 384s229.233778-512 512-512 512 229.233778 512 512S794.766222 896 512 896z m-102.712889-719.672889L223.601778 358.755556l32.796444 48.028444 152.888889-110.222222 359.111111 295.111111 32-24.888889-391.111111-390.456889z"  horiz-adv-x="1024" />

    
    <glyph glyph-name="home" unicode="&#58992;" d="M950.3 406.6l-416.5 416.4c-12 12-31.5 12-43.5 0l-416.4-416.4c-19.4-19.4-5.7-52.5 21.7-52.5h66.8v-353.7c0-35.3 28.7-64 64-64h157.6v127.8c0 35.3 28.7 64 64 64h128c35.3 0 64-28.7 64-64v-127.8h156.6c35.3 0 64 28.7 64 64v353.7h67.8c27.5 0 41.2 33.2 21.9 52.5z"  horiz-adv-x="1024" />

    
    <glyph glyph-name="jia" unicode="&#58969;" d="M512 825.717c-244.514 0-442.732-197.763-442.732-441.717s198.218-441.717 442.732-441.717 442.732 197.763 442.732 441.717-198.218 441.717-442.732 441.717M735.045 337.396h-176.442v-176.442c0-25.738-20.866-46.604-46.604-46.604s-46.604 20.866-46.604 46.604v176.442h-176.442c-25.738 0-46.604 20.866-46.604 46.604s20.866 46.604 46.604 46.604h176.442v176.442c0 25.738 20.866 46.604 46.604 46.604s46.604-20.866 46.604-46.604v-176.442h176.442c25.738 0 46.604-20.866 46.604-46.604s-20.866-46.604-46.604-46.604z"  horiz-adv-x="1024" />

    
    <glyph glyph-name="cuo" unicode="&#58907;" d="M510.7 767C299 767 127.4 595.4 127.4 383.7c0-211.7 171.6-383.3 383.3-383.3C722.4 0.4 894 172 894 383.7 894 595.4 722.4 767 510.7 767z m135.5-485c9.4-9.4 9.4-24.5 0-33.9-9.4-9.4-24.5-9.4-33.9 0L510.8 349.7 408.6 247.5c-9.4-9.4-24.7-9.4-34.1 0-9.4 9.4-9.4 24.7 0 34.1l102.2 102.2-101.5 101.5c-9.4 9.4-9.4 24.5 0 33.9 9.4 9.4 24.5 9.4 33.9 0l101.5-101.5 103 103c9.4 9.4 24.7 9.4 34.1 0 9.4-9.4 9.4-24.7 0-34.1l-103-103L646.2 282z"  horiz-adv-x="1024" />

    
    <glyph glyph-name="icon-test" unicode="&#59108;" d="M945.7 230c-8.2 9.3-37.7 14-71.7 14.4 0.8 43.9 10.2 131.6-7.3 146.8-10 8.7-167 20.6-318.2 12.2l4.4 64.5c46 0.8 85.8 5.1 95.1 14.4 23 23 26.9 172.9 0 203.6-26.9 30.7-230.5 23-261.3-15.4-30.7-38.4-26.9-172.9 0-188.2 10.6-6.1 50-10.9 95.2-13.2l3.6-69.4c-163.7-10.4-322.1-25.3-328.3-36-9.2-16-0.8-84.8 4.4-121.2-37.2-3.6-71.1-11.8-81.1-24.3-23.5-29.3-20.5-132.2 0-143.9 20.5-11.8 182.1-17.6 199.7 0 17.6 17.6 20.6 132.2 0 155.7-8.5 9.7-40.2 14.4-76.1 14.5-3.3 26.2-7.8 76.5 3.8 88.3 7.6 7.7 141 17.1 279.8 22.4l5.9-113.5c-34.3-3.9-64.4-11.8-73.8-23.5-23.5-29.4-20.6-132.2 0-143.9 20.6-11.8 182.1-17.6 199.7 0 17.6 17.6 20.6 132.2 0 155.7-9 10.3-43.8 14.9-82 14.5l7.7 112.7c131.6 3.9 268.6 4.1 275.1-6 10.1-15.6 15.1-72.4 11.6-109.7-36.9-3.6-76.2-10.9-86.2-23.3-23.5-29.4-20.6-132.2 0-143.9 20.6-11.8 182.1-17.6 199.7 0 17.9 17.6 20.8 132.2 0.3 155.7z"  horiz-adv-x="1024" />

    
    <glyph glyph-name="jian1" unicode="&#58889;" d="M224 432h576a48 48 0 0 0 0-96h-576a48 48 0 0 0 0 96z"  horiz-adv-x="1024" />

    
    <glyph glyph-name="dian" unicode="&#58888;" d="M512 576a192.064 192.064 0 0 0 0-384 192 192 0 0 0 0 384z"  horiz-adv-x="1024" />

    
    <glyph glyph-name="shenhetongguo" unicode="&#58916;" d="M97.878 412.147c0 117.062-0.108 160.999-0.108 278.062 0 101.472 56.328 108.082 110.483 108.082h441.933c85.128 0 111.453-28.968 111.453-110.481v-55.241c0-43.562-55.419-38.57-55.419 0V687.81c0 40.918-13.309 55.24-56.035 55.24H208.252c-45.746 0-55.241-6.203-55.241-55.24v-552.407c0-30.278 16.572-55.241 55.241-55.241 67.004 0 43.482-0.026 110.484 0 33.77 0 36.252-55.241 0-55.241s-63.711-0.44-131.306-0.17c-39.867 0.163-72.883 23.774-84.643 60.322-3.292 10.223-4.694 21.525-4.694 32.34-0.323 116.658-0.215 178.076-0.215 294.734M649.644-30.291000000000054c-152.344 0.027-275.666 123.537-275.666 276.122 0 152.586 123.915 276.259 276.529 276.042 152.616-0.215 275.884-124.022 275.722-276.878-0.16-152.236-123.807-275.314-276.585-275.286m0.756 496.868c-121.109 0.271-220.641-98.828-220.91-220.045-0.27-121.541 98.345-220.934 219.561-221.287 121.704-0.324 221.505 98.208 221.775 219.047 0.324 122.594-98.236 221.99-220.426 222.285M594.945 632.9390000000001c44.02-0.027 37.978-55.979 0-55.979h-331.45c-41.431 0-39.704 55.979 0 55.979 108.756 0.027 289.155 0.027 331.45 0zM318.736 467.218c44.021-0.028 37.979-55.98 0-55.98h-55.242c-41.431 0-39.704 55.98 0 55.98 108.757 0.027 12.948 0.027 55.242 0zM785.502 348.78c-12.496 12.498-32.758 12.498-45.254 0L602.151 210.68399999999997l-42.191 42.191c-12.498 12.496-32.758 12.496-45.256 0-12.496-12.497-12.496-32.759 0-45.256l64.818-64.818c6.249-6.248 14.438-9.372 22.628-9.372s16.379 3.124 22.628 9.372a32.424 32.424 0 0 1 2.402 2.695 32.304 32.304 0 0 1 2.689 2.397l155.633 155.633c12.497 12.496 12.497 32.758 0 45.254z"  horiz-adv-x="1024" />

    
    <glyph glyph-name="dkw_shenheweitongguo" unicode="&#58884;" d="M793.813333 239.146667a21.333333 21.333333 0 0 1-30.08 0l-70.4-70.4-70.186666 70.186666a21.333333 21.333333 0 0 1-30.08-30.08l70.186666-70.186666-70.186666-70.186667a21.333333 21.333333 0 1 1 30.08-30.08l70.186666 70.186667 70.186667-70.186667a21.333333 21.333333 0 0 1 30.08 30.08l-70.186667 70.186667 70.186667 70.186666a21.333333 21.333333 0 0 1 0.213333 30.293334zM693.333333 394.666667a256 256 0 1 1 256-256 256 256 0 0 1-256 256z m0-469.333334a213.333333 213.333333 0 1 0 213.333334 213.333334 213.333333 213.333333 0 0 0-213.333334-213.333334zM245.333333 157.226667a21.333333 21.333333 0 0 1 0-42.666667h106.666667a21.333333 21.333333 0 0 1 0 42.666667h-106.666667zM416 285.226667a21.333333 21.333333 0 0 1-21.333333 21.333333h-149.333334a21.333333 21.333333 0 0 1 0-42.666667h149.333334a21.333333 21.333333 0 0 1 21.333333 21.333334zM629.333333 434.56a21.333333 21.333333 0 0 1-21.333333 21.333333h-362.666667a21.333333 21.333333 0 0 1 0-42.666666h362.666667a21.333333 21.333333 0 0 1 21.333333 21.333333zM458.666667-34.773333h-256a85.333333 85.333333 0 0 0-82.56 88.106666V562.56h768v-208.853333a21.333333 21.333333 0 1 1 42.666666 0V693.333333a128 128 0 0 1-130.773333 125.226667h-82.56V864a21.333333 21.333333 0 0 1-42.666667 0v-45.44h-341.333333V864a21.333333 21.333333 0 0 1-42.666667 0v-45.44H202.666667A123.733333 123.733333 0 0 1 77.44 693.333333v-640a128 128 0 0 1 125.226667-130.773333h256a21.333333 21.333333 0 0 1 0 42.666667zM120.106667 693.333333A80.853333 80.853333 0 0 0 202.666667 775.893333h88.106666v-18.56a21.333333 21.333333 0 0 1 42.666667 0v18.56h341.333333v-18.56a21.333333 21.333333 0 0 1 42.666667 0v18.56h82.56a85.333333 85.333333 0 0 0 88.106667-82.56v-88.106666h-768V693.333333z"  horiz-adv-x="1024" />

    
    <glyph glyph-name="cry" unicode="&#58885;" d="M336.8 396.8c34.4 0 62.4 28 62.4 62.4s-28 62.4-62.4 62.4-62.4-28-62.4-62.4 28-62.4 62.4-62.4zM712 396.8c34.4 0 62.4 28 62.4 62.4s-28 62.4-62.4 62.4-62.4-28-62.4-62.4 28-62.4 62.4-62.4zM352.8 191.2c43.2 34.4 100 55.2 172 55.2s128-20.8 172-55.2c26.4-21.6 42.4-42.4 50.4-58.4 6.4-12 0.8-27.2-11.2-33.6s-27.2-0.8-33.6 11.2c-0.8 1.6-3.2 6.4-8 12-7.2 10.4-17.6 20-28.8 29.6-34.4 28-80.8 44.8-140.8 44.8s-106.4-16.8-140.8-44.8c-12-9.6-21.6-20-28.8-29.6-4-5.6-7.2-9.6-8-12-6.4-12-20.8-17.6-33.6-11.2-12 6.4-17.6 20.8-11.2 33.6 8 16 24 37.6 50.4 58.4zM524.8-88.8c-260.8 0-472.8 212-472.8 472.8s212 472.8 472.8 472.8 472.8-212 472.8-472.8-212.8-472.8-472.8-472.8zM524.8 808.8c-234.4 0-424.8-190.4-424.8-424.8s190.4-424.8 424.8-424.8 424.8 190.4 424.8 424.8-191.2 424.8-424.8 424.8z"  horiz-adv-x="1024" />

    
    <glyph glyph-name="huifu" unicode="&#59053;" d="M884.046 374.784c-31.649-101-293.227-177.348-478.103 51.135 86.386-69.263 340.288-101.59 397.091 17.861-76.525 40.034-101.797 51.253-101.797 51.253l259.807 18.068-18.069-254.433c0 0.001-39.68 75.521-58.929 116.116zM282.889 94.872c-8.444 0-15.294 6.849-15.294 15.234V242.43c0 8.444 6.849 15.294 15.294 15.294h27.457c8.444 0 15.294-6.849 15.294-15.294v-132.324c0-8.385-6.849-15.234-15.294-15.234h-27.457z m132.56 0c-8.444 0-15.294 6.849-15.294 15.234V242.43c0 8.444 6.849 15.294 15.294 15.294h27.457c8.444 0 15.294-6.849 15.294-15.294v-132.324c0-8.385-6.849-15.234-15.294-15.234h-27.457z m132.561 0c-8.444 0-15.294 6.849-15.294 15.234V242.43c0 8.444 6.849 15.294 15.294 15.294h27.457c8.503 0 15.352-6.849 15.352-15.294v-132.324c0-8.385-6.849-15.234-15.352-15.234H548.01z m246.757 473.232l-598.235 0.443v-504.911c0-30.646 24.829-55.446 55.475-55.446H638.41c30.646 0 55.504 24.8 55.504 55.446v90.638 0.354c0 16.297 13.345 29.465 29.878 29.465s29.878-13.168 29.878-29.465c0-2.716-0.886-5.196-1.535-7.676l1.535-0.178v-142.952c0-30.586-24.8-55.386-55.446-55.386H193.078c-30.616 0-55.446 24.8-55.446 55.386V568.606l-54.412 0.029c-10.894 0-19.722 8.886-19.692 19.81l0.06 19.811c0.06 10.953 8.917 19.81 19.84 19.81l138.377-0.118 0.384 118.862c0.06 21.877 17.832 39.591 39.65 39.561l336.066-0.236c21.789 0 39.443-17.774 39.325-39.65l-0.354-118.832-52.788 0.029 210.916-0.147c10.865-0.029 19.722-8.886 19.722-19.84l-0.118-19.81c-0.001-10.924-8.859-19.781-19.841-19.781z m-256.382 158.66l-217.44 0.147c-21.818 0.029-39.591-17.685-39.65-39.561l-0.207-59.431 296.505-0.236 0.178 59.431c0.057 21.876-17.539 39.62-39.386 39.65z"  horiz-adv-x="1024" />

    
    <glyph glyph-name="liebiao" unicode="&#58924;" d="M149.8 831.6c-46.3 0-84-37.7-84-84s37.7-84 84-84 84 37.7 84 84-37.7 84-84 84z m0-124.2c-22.2 0-40.2 18.1-40.2 40.2 0 22.2 18.1 40.2 40.2 40.2 22.2 0 40.2-18.1 40.2-40.2 0-22.2-18.1-40.2-40.2-40.2zM148.3 589.3c-46.3 0-84-37.7-84-84s37.7-84 84-84 84 37.7 84 84-37.7 84-84 84z m0-124.2c-22.2 0-40.2 18.1-40.2 40.2 0 22.2 18.1 40.2 40.2 40.2 22.2 0 40.2-18.1 40.2-40.2 0-22.2-18-40.2-40.2-40.2zM148.3 347c-46.3 0-84-37.7-84-84s37.7-84 84-84 84 37.7 84 84c0 46.4-37.7 84-84 84z m0-124.2c-22.2 0-40.2 18.1-40.2 40.2 0 22.2 18.1 40.2 40.2 40.2 22.2 0 40.2-18.1 40.2-40.2s-18-40.2-40.2-40.2zM148.3 104.8c-46.3 0-84-37.7-84-84s37.7-84 84-84 84 37.7 84 84-37.7 84-84 84z m0-124.3c-22.2 0-40.2 18.1-40.2 40.2 0 22.2 18.1 40.2 40.2 40.2 22.2 0 40.2-18.1 40.2-40.2s-18-40.2-40.2-40.2zM360.2 696.4h548.9c28.3 0 51.2 23 51.2 51.2 0 28.3-23 51.2-51.2 51.2H360.2c-28.3 0-51.2-23-51.2-51.2 0-28.2 23-51.2 51.2-51.2zM909.1 72H360.2c-28.3 0-51.2-23-51.2-51.2 0-28.3 23-51.2 51.2-51.2h548.9c28.3 0 51.2 23 51.2 51.2 0 28.2-23 51.2-51.2 51.2zM909.1 314.3H360.2c-28.3 0-51.2-23-51.2-51.2s23-51.2 51.2-51.2h548.9c28.3 0 51.2 23 51.2 51.2s-23 51.2-51.2 51.2zM909.1 556.6H360.2c-28.3 0-51.2-23-51.2-51.2 0-28.3 23-51.2 51.2-51.2h548.9c28.3 0 51.2 23 51.2 51.2 0 28.2-23 51.2-51.2 51.2z"  horiz-adv-x="1024" />

    
    <glyph glyph-name="wenjian" unicode="&#59002;" d="M170.666667 839.111111h512l170.666666-170.666667v-739.555555H170.666667V839.111111z m56.888889-56.888889v-796.444444h568.888888V645.688889L659.911111 782.222222H227.555556zM739.555556 213.333333v-56.888889H284.444444v56.888889h455.111112z m0 170.666667v-56.888889H284.444444V384h455.111112z m-113.777778 227.555556V839.111111h-56.888889v-284.444444h284.444444V611.555556h-227.555555z"  horiz-adv-x="1024" />

    
    <glyph glyph-name="shezhi" unicode="&#58882;" d="M986.746539 471.536573l-42.140974 42.140974a122.147749 122.147749 0 0 0-36.033586 86.114162v61.073875a122.147749 122.147749 0 0 1-122.147748 122.147748h-61.073875a122.147749 122.147749 0 0 0-86.114162 36.033586L598.316698 859.966414a122.147749 122.147749 0 0 1-172.839065 0l-42.140973-42.140973a122.147749 122.147749 0 0 0-86.114163-36.033586h-61.073874a122.147749 122.147749 0 0 1-122.147749-122.147749v-61.073874a122.147749 122.147749 0 0 0-36.033586-86.114163l-42.140973-42.140973a122.147749 122.147749 0 0 1 0-172.839065l42.140973-42.140973a122.147749 122.147749 0 0 0 36.033586-86.114163v-61.073874a122.147749 122.147749 0 0 1 122.147749-122.147749h61.073874a122.147749 122.147749 0 0 0 86.114163-36.033585l42.140973-42.140974a122.147749 122.147749 0 0 1 172.839065 0l42.140973 42.140974a122.147749 122.147749 0 0 0 86.114163 36.033585h61.073874a122.147749 122.147749 0 0 1 122.147749 122.147749v61.073874a122.147749 122.147749 0 0 0 36.033586 86.114163l42.140973 42.140973a122.147749 122.147749 0 0 1-1.221477 174.060542z m-43.362451-129.476613l-42.140973-42.140974a183.221623 183.221623 0 0 1-53.74501-129.476613v-61.073874a61.073874 61.073874 0 0 0-61.073874-61.073875h-61.073875a183.221623 183.221623 0 0 1-129.476613-53.745009l-42.140973-42.140974a61.073874 61.073874 0 0 0-86.114163 0L428.531327-4.228908a183.221623 183.221623 0 0 1-129.476613 53.74501h-61.073875a61.073874 61.073874 0 0 0-61.073874 61.073874v61.073874A183.221623 183.221623 0 0 1 123.161955 299.918986l-42.140973 42.140974a61.073874 61.073874 0 0 0 0 86.114163L123.161955 468.48288a183.221623 183.221623 0 0 1 53.74501 129.476613v61.073875a61.073874 61.073874 0 0 0 61.073874 61.073874h61.073875A183.221623 183.221623 0 0 1 428.531327 773.852251l42.140973 42.140974a61.073874 61.073874 0 0 0 86.114163 0l40.308757-42.140974a183.221623 183.221623 0 0 1 129.476614-53.745009h61.073874a61.073874 61.073874 0 0 0 61.073875-61.073874v-61.073875A183.221623 183.221623 0 0 1 901.243115 468.48288l42.140973-42.140974a61.073874 61.073874 0 0 0 0-86.114162zM511.591796 599.180971a213.75856 213.75856 0 1 1 213.75856-213.75856 213.75856 213.75856 0 0 1-213.75856 213.75856z m0-366.443246a152.684686 152.684686 0 1 0 152.684686 152.684686 152.684686 152.684686 0 0 0-152.684686-152.684686z"  horiz-adv-x="1026" />

    
    <glyph glyph-name="shenglve" unicode="&#58913;" d="M188.7 505.6c67.2 0 121.6-54.4 121.6-121.6 0-67.2-54.4-121.6-121.6-121.6-67.2 0-121.6 54.4-121.6 121.6 0 67.2 54.5 121.6 121.6 121.6z m646.6 0c67.2 0 121.6-54.4 121.6-121.6 0-67.2-54.4-121.6-121.6-121.6-67.2 0-121.6 54.4-121.6 121.6 0 67.2 54.4 121.6 121.6 121.6z m-323.3 0c67.2 0 121.6-54.4 121.6-121.6 0-67.2-54.4-121.6-121.6-121.6S390.4 316.8 390.4 384c0 67.2 54.4 121.6 121.6 121.6z"  horiz-adv-x="1024" />

    
    <glyph glyph-name="sousuo" unicode="&#58880;" d="M722.489 253.156c45.511 62.577 73.955 136.533 73.955 216.177 0 204.8-164.977 369.778-369.777 369.778S56.889 674.133 56.889 469.333s164.978-369.777 369.778-369.777c79.644 0 153.6 28.444 216.177 68.266l221.867-221.866c22.756-22.756 56.889-22.756 79.645 0 22.755 22.755 22.755 56.888 0 79.644L722.489 253.156z m-295.822-96.712c-170.667 0-312.89 142.223-312.89 312.89S256 782.221 426.668 782.221 739.556 640 739.556 469.333s-142.223-312.889-312.89-312.889"  horiz-adv-x="1027" />

    
    <glyph glyph-name="gaiicon-" unicode="&#59093;" d="M398.222222 554.666667c-34.133333 0-56.888889 22.755556-56.888889 56.888889s22.755556 56.888889 56.888889 56.888888 56.888889-22.755556 56.888889-56.888888-22.755556-56.888889-56.888889-56.888889zM398.222222 327.11111100000005c-34.133333 0-56.888889 22.755556-56.888889 56.888889s22.755556 56.888889 56.888889 56.888889 56.888889-22.755556 56.888889-56.888889-22.755556-56.888889-56.888889-56.888889zM398.222222 99.55555600000002c-34.133333 0-56.888889 22.755556-56.888889 56.888888s22.755556 56.888889 56.888889 56.888889 56.888889-22.755556 56.888889-56.888889-22.755556-56.888889-56.888889-56.888888zM967.111111-14.222221999999988h-56.888889V497.777778c0 28.444444-28.444444 56.888889-56.888889 56.888889s-56.888889-28.444444-56.888889-56.888889v-512h-113.777777V782.222222c0 62.577778-51.2 113.777778-113.777778 113.777778H227.555556C164.977778 896 113.777778 844.8 113.777778 782.222222v-796.444444H56.888889c-28.444444 0-56.888889-28.444444-56.888889-56.888889v-11.377778c5.688889-28.444444 28.444444-45.511111 56.888889-45.511111h910.222222c28.444444 0 51.2 22.755556 56.888889 51.2V-71.11111100000005c0 28.444444-28.444444 56.888889-56.888889 56.888889z m-398.222222 0H227.555556V782.222222h341.333333v-796.444444z"  horiz-adv-x="1024" />

    
    <glyph glyph-name="nan" unicode="&#58896;" d="M358.032 271.899a30.801 30.801 0 1 1 63.039 0 30.801 30.801 0 1 1-63.038 0z m262.99 0a30.801 30.801 0 1 1 63.037 0 30.801 30.801 0 1 1-63.037 0z m281.821 218.718s-9.282 79.594-51.964 125.765c0 0 30.007 16.164-2.303 43.842 0 0-28.825 6.924-34.614 4.603 0 0-14.973 50.786-44.979 63.477 0 0-25.401 6.16-31.188-18.465 0 0-67.462 34.322-116.248 42.988 0 0-124.576 23.941-158.028 81.908 0 0-7.225 14.703-30.847 6.064 0 0-22.54-17.877-15.63-89.413 0 0 1.926-14.629-94.235 46.91 0 0-23.83 6.15-30.738-12.298 0 0-12.277-43.84 3.07-76.158 0 0-55.372-9.988-79.258-33.846 0 0-26.88-34.621 18.46-40.003 0 0-67.635-38.459-79.22-146.909 0 0-1.353-76.092 23.042-160.503a96.063 96.063 0 0 1-5.623-44.326c4.764-44.065 38.812-79.014 82.893-85.201 13.907-42.315 37.644-81.083 70.055-113.493 54.438-54.44 126.819-84.42 203.807-84.42s149.37 29.98 203.808 84.42c33.104 33.104 57.143 72.847 70.917 116.22 42.516 5.446 76.437 37.905 83.273 80.361 3.315 20.598-0.159 40.963-9.03 58.588 15.168 44.548 28.314 99.574 24.58 149.89zM249.33 213.72c-34.119 8.148-59.748 36.671-63.563 71.965a83.181 83.181 0 0 0 0.088 18.627c6.146-17.761 13.512-35.604 22.355-52.917 0 0 18.251-18.252 37.067-11.517a287.165 287.165 0 0 1 2.71-13.735l1.343-12.423z m279.966-199.28c-130.877 0-240.674 91.933-268.243 214.609l-2.244 20.76c2.158 2.56 4.264 5.613 6.286 9.26 0 0 2.377 85.405 53.146 136.172 0 0 44.606-12.345 101.533 19.235 0 0-23.867-29.238-45.412-44.62 0 0-12.319-30.005 15.386-33.094 0 0 85.379-16.157 170.757 40.003 0 0-4.605-28.464 36.185-19.984 0 0 33.02 0.757 86.127 41.538 0 0 11.55-19.23 54.978 4.597 0 0-1.124-38.055 33.49-96.9 0 0 15.01-24.478 15.01-67.614 0 0 3.941-3.251 9.851-6.1l-3.555-22.083C758.52 97.087 653.387 14.441 529.296 14.441zM874.16 284.255c-5.58-34.649-32.11-61.567-66.044-68.327a288.21 288.21 0 0 1 2.913 12.22c10.411-0.582 21.853 4.293 29.481 23.616 0 0 15.437 28.599 31.024 70.149a82.776 82.776 0 0 0 2.626-37.658z"  horiz-adv-x="1024" />

    
    <glyph glyph-name="nv" unicode="&#58897;" d="M358.032 271.899a30.801 30.801 0 1 1 63.039 0 30.801 30.801 0 1 1-63.038 0z m262.99 0a30.801 30.801 0 1 1 63.037 0 30.801 30.801 0 1 1-63.037 0z m226.663 95.005c-0.045 4.295-0.15 8.621-0.363 12.993 0.133 2.305 0.268 4.625 0.407 6.967 0.378 6.357-0.679 13.249-2.849 20.492-13.886 107.69-80.21 226.507-234.402 257.258a68.878 68.878 0 0 1 2.94 19.874c0 41.821-37.568 75.724-83.91 75.724s-83.912-33.903-83.912-75.724a68.86 68.86 0 0 1 2.995-20.048c-172.024-35.076-236.31-182.03-237.282-298.37-24-17.796-39.005-46.12-39.005-77.406 0-39.933 24.435-75.057 60.84-89.588 34.625-219.769 49.248-160.392 49.248-134.317 0 11.919-5.146 45.876-6.574 87.158 13.104-24.085 29.74-46.427 49.67-66.358 54.44-54.44 126.82-84.42 203.808-84.42s149.37 29.98 203.808 84.42a291.336 291.336 0 0 1 34.072 40.95c-1.344-36.572-2.364-68.07-2.364-79.698 0-26.203 25.241 6.882 51.847 118.423 2.764 11.59 5.24 22.466 7.48 32.766 37.966 13.806 63.677 49.704 63.677 90.665 0 31.771-15.472 60.5-40.131 78.239z m-662.078-78.24c0 23.657 9.966 45.358 26.389 60.692 0.219-1.86 0.482-3.585 0.799-5.143l-0.006-0.01c6.465-50.727 12.43-93.471 17.918-129.408-27.278 14.076-45.1 42.222-45.1 73.869z m582.582-135.24c-47.387-82.949-136.716-138.982-238.893-138.982-114.103 0-212.184 69.879-253.723 169.083 1.255 58.505 12.952 123.566 55.943 160.625 46.229 39.85 68.721 105.324 79.592 155.71 10.06-44.267 32.988-97.67 85.256-109.898 88.687-20.747 127.991-21.788 168.505-22.453 19.19-0.315 100.625 3.07 108.812-78.843 0.001-0.001-2.985-69.876-5.492-135.24z m59.298 60.401c11.065 53.957 15.005 90.706 17.404 125.484 1.016 2.847 1.764 6.48 2.238 10.963 17.017-15.377 27.385-37.475 27.385-61.608-0.001-32.388-18.664-61.113-47.027-74.839z"  horiz-adv-x="1024" />

    
    <glyph glyph-name="tubiaolunkuo-" unicode="&#58898;" d="M640 620.8H192c-12.8 0-19.2 6.4-19.2 19.2s6.4 19.2 19.2 19.2h448c12.8 0 19.2-6.4 19.2-19.2s-6.4-19.2-19.2-19.2zM640 460.8H192c-12.8 0-19.2 6.4-19.2 19.2s6.4 19.2 19.2 19.2h448c12.8 0 19.2-6.4 19.2-19.2s-6.4-19.2-19.2-19.2zM448 300.79999999999995H192c-12.8 0-19.2 6.4-19.2 19.2s6.4 19.2 19.2 19.2h256c12.8 0 19.2-6.4 19.2-19.2s-6.4-19.2-19.2-19.2zM448 140.79999999999995H192c-12.8 0-19.2 6.4-19.2 19.2s6.4 19.2 19.2 19.2h256c12.8 0 19.2-6.4 19.2-19.2s-6.4-19.2-19.2-19.2zM454.4-64H192c-83.2 0-147.2 57.6-147.2 128V704c0 70.4 64 128 147.2 128h512c83.2 0 147.2-57.6 147.2-128v-204.8c0-12.8-6.4-19.2-19.2-19.2s-19.2 6.4-19.2 19.2V704c0 51.2-51.2 89.6-108.8 89.6H192c-57.6 0-108.8-38.4-108.8-89.6v-640c0-51.2 51.2-89.6 108.8-89.6h262.4c12.8 0 19.2-6.4 19.2-19.2s-6.4-19.2-19.2-19.2zM729.6-76.79999999999995c-134.4 0-243.2 108.8-243.2 243.2s108.8 243.2 243.2 243.2 243.2-108.8 243.2-243.2-108.8-243.2-243.2-243.2z m0 448c-115.2 0-204.8-89.6-204.8-204.8s89.6-204.8 204.8-204.8 204.8 89.6 204.8 204.8-89.6 204.8-204.8 204.8zM704 76.79999999999995c-64 0-115.2 51.2-115.2 115.2S640 307.20000000000005 704 307.20000000000005s115.2-51.2 115.2-115.2-51.2-115.2-115.2-115.2z m0 192c-44.8 0-76.8-32-76.8-76.8s32-76.8 76.8-76.8 76.8 32 76.8 76.8-32 76.8-76.8 76.8zM844.8 64c-6.4 0-6.4 0-12.8 6.4l-64 51.2c-6.4 6.4-12.8 19.2 0 25.6 6.4 6.4 19.2 6.4 25.6 0l64-51.2c6.4-6.4 12.8-19.2 0-25.6 0-6.4-6.4-6.4-12.8-6.4z"  horiz-adv-x="1024" />

    
    <glyph glyph-name="shenhe" unicode="&#59015;" d="M946.2 12.3l-142 142.1c-7.3 7.3-16.9 11.3-27.2 11.3s-20-4-27.2-11.3l-4.5-4.5c-15-15-15-39.4 0-54.5l146.5-146.5c7.5-7.5 17.4-11.3 27.2-11.3 9.9 0 19.7 3.8 27.2 11.3 17.5 17.5 17.5 45.9 0 63.4zM816.6 255.2C833.4 295.1 842 337.4 842 381c0 43.6-8.6 85.9-25.4 125.8-16.2 38.5-39.6 73-69.3 102.7-29.6 29.7-64.3 53-102.7 69.3-39.9 16.8-82.2 25.4-125.8 25.4-43.6 0-85.9-8.6-125.8-25.4-38.5-16.3-73-39.6-102.7-69.3-29.7-29.6-53-64.3-69.3-102.7-16.8-39.9-25.4-82.2-25.4-125.8 0-43.6 8.6-85.9 25.4-125.8 16.3-38.5 39.6-73 69.3-102.7 29.6-29.7 64.3-53 102.7-69.3 39.9-16.8 82.2-25.4 125.8-25.4 43.6 0 85.9 8.6 125.8 25.4 38.5 16.2 73 39.6 102.7 69.3 29.8 29.6 53.1 64.2 69.3 102.7zM518.9 95.4c-157.5 0-285.6 128.1-285.6 285.6 0 157.5 128.1 285.6 285.6 285.6 157.5 0 285.6-128.1 285.6-285.6-0.1-157.5-128.2-285.6-285.6-285.6z m0 0M334.7 525.1l-3 2.3c-7.7 5.9-18.9 4.1-24.3-4-0.2-0.2-0.4-0.6-0.6-0.9-5.4-8.1-2.7-19 5.7-23.8l3.4-1.9c7.7-4.4 17.6-2.1 22.5 5.3 0.1 0.1 0.1 0.2 0.2 0.2 4.9 7.5 3.2 17.4-3.9 22.8zM300 468.9c-10 4.2-21.6-0.8-25.1-11.1-10.1-29.5-15.2-60.3-15.2-92v-0.5c0-10.9 9.3-19.4 20.1-18.6 9.9 0.7 17.5 9 17.5 18.9v0.2c0 27.4 4.4 54.1 13.1 79.5 3.2 9.5-1.3 19.7-10.4 23.6z m0 0M254.2 22.5H178c-62 0-112.2 50.2-112.2 112.2V718.3c0 62 50.2 112.2 112.2 112.2h583.6c62 0 112.2-50.2 112.2-112.2v-80.6c0-10.9-8.8-19.7-19.7-19.7-10.9 0-19.7 8.8-19.7 19.7v80.6c0 40.2-32.6 72.7-72.7 72.7H178c-40.2 0-72.7-32.6-72.7-72.7v-583.6c0-40.2 32.6-72.7 72.7-72.7h76.1c10.9 0 19.7-8.8 19.7-19.7 0.1-10.9-8.7-19.8-19.6-19.8z"  horiz-adv-x="1024" />

    
    <glyph glyph-name="shoucang1" unicode="&#58928;" d="M544.9 777.9L644 577.1c7.9-16.1 23.3-27.2 41-29.8l221.6-32.2c29.1-4.2 40.8-40 19.7-60.6L765.9 298.2a54.615 54.615 0 0 1-15.7-48.2l37.9-220.7c5-29-25.5-51.1-51.5-37.4L538.3 96.1c-15.9 8.3-34.8 8.3-50.7 0L289.5-8.1c-26.1-13.7-56.5 8.4-51.5 37.4L275.8 250c3 17.7-2.8 35.7-15.7 48.2L99.8 454.5c-21.1 20.5-9.4 56.4 19.7 60.6l221.6 32.2c17.7 2.6 33.1 13.7 41 29.8l99.1 200.8c13 26.4 50.6 26.4 63.7 0z"  horiz-adv-x="1024" />

    
    <glyph glyph-name="shanchu" unicode="&#58954;" d="M880 656H704v64c0 52.8-43.2 96-96 96H416c-52.8 0-96-43.2-96-96v-64H144c-17.6 0-32-14.4-32-32s14.4-32 32-32h48v-512c0-70.4 57.6-128 128-128h384c70.4 0 128 57.6 128 128V592h48c17.6 0 32 14.4 32 32s-14.4 32-32 32z m-496 64c0 17.6 14.4 32 32 32h192c17.6 0 32-14.4 32-32v-64H384v64z m384-640c0-35.2-28.8-64-64-64H320c-35.2 0-64 28.8-64 64V592h512v-512zM416 464c-17.6 0-32-14.4-32-32v-256c0-17.6 14.4-32 32-32s32 14.4 32 32V432c0 17.6-14.4 32-32 32zM608 464c-17.6 0-32-14.4-32-32v-256c0-17.6 14.4-32 32-32s32 14.4 32 32V432c0 17.6-14.4 32-32 32z"  horiz-adv-x="1024" />

    
    <glyph glyph-name="yinyong" unicode="&#58914;" d="M277.942857 479.085714h285.257143V691.2H219.428571v-51.2h292.571429V530.285714H219.428571v-219.428571h292.571429c0-87.771429-7.314286-146.285714-14.628571-168.228572-7.314286-21.942857-36.571429-36.571429-95.085715-36.571428h-73.142857l14.628572-51.2h65.828571c80.457143 0 124.342857 21.942857 131.657143 65.828571 21.942857 36.571429 29.257143 117.028571 29.257143 234.057143h-292.571429V479.085714zM950.857143 896H73.142857C36.571429 896 0 859.428571 0 822.857143v-877.714286c0-36.571429 36.571429-73.142857 73.142857-73.142857h877.714286c36.571429 0 73.142857 36.571429 73.142857 73.142857V822.857143c0 36.571429-36.571429 73.142857-73.142857 73.142857z m21.942857-950.857143c0-14.628571-7.314286-21.942857-21.942857-21.942857H73.142857c-14.628571 0-21.942857 7.314286-21.942857 21.942857V822.857143C51.2 837.485714 58.514286 844.8 73.142857 844.8h877.714286c14.628571 0 21.942857-7.314286 21.942857-21.942857v-877.714286zM731.428571 47.542857h51.2V720.457143H731.428571v-672.914286z"  horiz-adv-x="1024" />

    
    <glyph glyph-name="yinle" unicode="&#59276;" d="M839.132942 799.566887c-19.382404 14.914658-43.764672 19.522597-68.76297 13.006195l-320.087492-83.22942c-39.241668-10.335372-67.722269-45.082688-67.722269-82.610321v-435.18158c-23.736563 17.753304-52.83524 28.62284-84.688652 28.62284h-3.203965c-78.423984 0-142.214718-63.789711-142.214718-142.214718v-3.175313c0-78.451613 63.790734-142.242347 142.214718-142.242347h3.203965c78.423984 0 142.214718 63.790734 142.214718 142.242347V465.870472l373.935804 98.284271V211.552784c-23.765216 17.753304-52.863893 28.62284-84.716281 28.622841h-3.201919c-78.427054 0-142.188112-63.789711-142.188112-142.214718v-3.175313c0-78.451613 63.762082-142.242347 142.188112-142.242347h3.201919c78.423984 0 142.240301 63.790734 142.240301 142.242347V729.934109c0 28.398737-11.79665 53.762354-32.413159 69.632778zM382.560211 94.785594c0-46.710765-38.005516-84.687628-84.688652-84.687629h-3.203965c-46.683135 0-84.688652 37.97584-84.688652 84.687629v3.175313c0 46.684159 38.005516 84.687628 84.688652 84.687628h3.203965c46.683135 0 84.688652-38.00347 84.688652-84.687628V94.785594z m57.526066 430.521453V646.734365c0 11.264532 11.150945 23.371244 24.774194 26.967134l320.059863 83.227373c7.472167 1.99442 13.988568 1.039677 19.099972-2.92051 6.236016-4.80339 10.000751-13.819723 10.000752-24.072207v-106.317208l-373.934781-98.3119z m373.935804-430.521453c0-46.710765-38.034169-84.687628-84.716281-84.687629h-3.201919c-46.686205 0-84.661023 37.97584-84.661022 84.687629v3.175313c0 46.684159 37.974817 84.687628 84.661022 84.687628h3.201919c46.682112 0 84.716281-38.00347 84.716281-84.687628V94.785594z"  horiz-adv-x="1024" />

    
    <glyph glyph-name="shoucang" unicode="&#59305;" d="M746.635636 323.584a123.136 123.136 0 0 1-35.397818-108.986182l33.512727-195.351273-175.45309 92.229819A123.578182 123.578182 0 0 1 512 125.626182c-19.898182 0-39.68-4.887273-57.297455-14.149818l-175.45309-92.229819 33.512727 195.351273a123.136 123.136 0 0 1-35.397818 108.986182l-141.963637 138.356364 196.189091 28.509091a123.019636 123.019636 0 0 1 92.672 67.328L512 735.557818l87.738182-177.780363a123.019636 123.019636 0 0 1 92.695273-67.328l196.165818-28.509091-141.963637-138.356364z m185.134546 202.635636l-229.306182 33.326546a53.248 53.248 0 0 0-40.122182 29.160727l-102.539636 207.778909A52.689455 52.689455 0 0 1 512 826.181818c-18.990545 0-38.027636-9.890909-47.802182-29.696l-102.539636-207.778909a53.294545 53.294545 0 0 0-40.122182-29.160727l-229.306182-33.326546c-43.706182-6.353455-61.160727-60.066909-29.533091-90.903272l165.934546-161.722182c12.544-12.241455 18.269091-29.905455 15.313454-47.173818l-39.168-228.375273c-5.911273-34.466909 21.480727-62.417455 52.526546-62.417455 8.168727 0 16.616727 1.931636 24.785454 6.237091l205.125818 107.822546a53.294545 53.294545 0 0 0 49.57091 0l205.125818-107.822546c8.145455-4.305455 16.593455-6.237091 24.785454-6.237091 31.045818 0 58.437818 27.950545 52.526546 62.417455l-39.168 228.375273a53.387636 53.387636 0 0 0 15.313454 47.173818l165.934546 161.722182c31.627636 30.836364 14.173091 84.549818-29.533091 90.903272z"  horiz-adv-x="1024" />

    
    <glyph glyph-name="shouji" unicode="&#58892;" d="M735.053 893.817H288.945c-52.65 0-95.595-43.002-95.595-95.59v-828.453c0-52.588 42.945-95.59 95.595-95.59h446.108c52.524 0 95.595 43.002 95.595 95.59V798.226c0 52.589-43.071 95.591-95.595 95.591zM384.54 846.022h254.92v-31.864H384.54V846.022z m127.458-908.11c-35.222 0-63.729 28.563-63.729 63.726 0 35.161 28.506 63.726 63.73 63.726 35.1 0 63.73-28.565 63.73-63.726 0-35.163-28.63-63.727-63.73-63.727z m254.92 191.18H257.08v637.27H766.92v-637.27z"  horiz-adv-x="1024" />

    
    <glyph glyph-name="guanzhu" unicode="&#58974;" d="M614.4-102.058667C439.637333-102.058667 65.7408 278.596267 65.7408 537.941333A293.410133 293.410133 0 0 0 358.741333 831.010133c95.095467 0 184.046933-38.775467 253.610667-93.457066C686.08 792.234667 774.9632 831.146667 870.058667 831.146667a293.410133 293.410133 0 0 0 293.0688-293.137067c0-259.413333-373.9648-640-548.727467-640zM358.741333 756.053333a218.3168 218.3168 0 0 1-218.043733-218.112C140.629333 318.327467 489.2672-26.965333 614.4-26.965333c125.1328 0 473.770667 345.361067 473.770667 564.974933a218.3168 218.3168 0 0 1-218.112 218.112c-54.818133 0-109.704533-17.2032-161.928534-46.011733-18.432-10.103467-35.157333-21.026133-49.9712-31.880534a288.290133 288.290133 0 0 1-18.773333-14.882133 37.546667 37.546667 0 0 0-50.176 0.136533C550.570667 702.122667 452.334933 756.053333 358.741333 756.053333z"  horiz-adv-x="1228" />

    
    <glyph glyph-name="cuo1" unicode="&#58909;" d="M607.3618772 513.36566186c9.27960181 0 17.28369164-3.29754663 23.93811036-9.88769579 6.67419434-6.69891334 10.03106713-14.62884546 10.03106713-23.89855909 0-9.26971435-3.36181617-17.30346656-10.03601051-23.99743652L559.70812964 384l71.58691454-71.37927222c6.67419434-6.69396997 10.0360105-14.62390137 10.03601051-23.68597412 0-9.26971435-3.36181617-17.30346656-10.03601051-23.89855981-6.64947533-6.59014916-14.65356445-9.88769508-23.93316698-9.88769508-9.33398461 0-17.23425293 3.29754663-23.73046875 9.78881836L512 336.31164527 440.63061523 264.93731713c-6.50115991-6.49127173-14.48547339-9.78881836-23.99249243-9.78881836-9.27960181 0-17.21942138 3.29754663-23.81451464 9.78881836-6.60003662 6.48632836-9.89758325 14.41625977-9.89758254 23.68597412 0 9.47735596 3.25799537 17.51110816 9.71466065 24.0023799L464.28692627 384 392.64068627 455.58691383c-6.45666528 6.48632836-9.71466065 14.41625977-9.71466065 23.68103075 0 9.37847924 3.29754663 17.41223145 9.89758254 24.00237989 6.59509253 6.69396997 14.53491211 9.9865725 23.81451464 9.9865725 9.35375953 0.10876489 17.3182981-3.29260253 23.99249243-9.9865725L512 431.68341065l71.62646508 71.58691382c6.69891334 6.69396997 14.59918237 9.9865725 23.73046875 9.98657251v0.10876488zM512 687.32482934c-41.08337403 0-80.38696289-8.0337522-117.83660888-24.10125732-37.45953345-15.96368432-69.73297095-37.59301734-96.77087379-64.57653809-27.05767846-27.09228492-48.61779785-59.32617188-64.66552734-96.8203125-16.04772949-37.38537574-24.07159424-76.72851586-24.09136988-117.82672143-0.02966309-40.99438477 8.01397729-80.33752417 24.09136988-117.82672143 16.08233666-37.49414063 37.62762451-69.73297095 64.66552734-96.8203125 27.0181272-26.98352075 59.25695825-48.50903297 96.77087379-64.57653809 37.49414063-16.06750512 76.78784203-24.10125732 117.83660888-24.10125732 41.06854248 0 80.33752417 8.0337522 117.85638452 24.10125732 37.49414063 16.06750512 69.73297095 37.59301734 96.75109815 64.57653809 27.03790283 27.09228492 48.58319068 59.32617188 64.66552734 96.8203125 16.07739258 37.48919654 24.12103296 76.83233666 24.09136987 117.82672143-0.01977563 41.09820557-8.0337522 80.43640161-24.09136987 117.82672143-16.03784203 37.49414063-37.59796143 69.73297095-64.66552734 96.8203125-27.04284692 26.98352075-59.30145288 48.61285376-96.75109815 64.57653809C592.40179443 679.2960205100001 553.08337403 687.32482934 512 687.32482934zM512 754.78857422c50.39758301 0 98.47155786-9.78881836 144.19226074-29.35656762 45.73059106-19.56774926 85.13305664-45.93328857 118.24694801-78.99774122 33.11389136-33.05950928 59.42504859-72.50646949 79.00268602-118.23706055C873.0145874 482.46661377 882.78857422 434.36297584 882.78857422 384c0-50.36791992-9.77398682-98.36279297-29.34667945-144.19720483-19.57763672-45.73059106-45.88879395-85.07373047-79.00268602-118.13323974-33.11389136-33.16827416-72.51141357-59.53381347-118.24694801-79.00268532C610.47155786 23.09912085999997 562.39758301 13.211425780000013 512 13.211425780000013c-50.38769555 0-98.45178223 9.88769508-144.19226074 29.45544434-45.72564698 19.46887183-85.12316918 45.83441186-118.23706055 79.0026853-33.11389136 33.05950928-59.43493676 72.40264868-79.00268531 118.13323975C150.99035668 285.63720703 141.21142578 333.63702416 141.21142578 384c0 50.36791992 9.77398682 98.46661377 29.35656762 144.19720483 19.56774926 45.73059106 45.88879395 85.17755127 79.00268531 118.23706055 33.11389136 33.06445336 72.51141357 59.42999268 118.23706054 79.0026853C413.54821777 744.99975586 461.61230445 754.78857422 512 754.78857422z"  horiz-adv-x="1024" />

    
    <glyph glyph-name="chaping" unicode="&#59100;" d="M310.6 329.7c-6.3-6.3-13.8-9.5-22.5-9.5H144c-8.7 0-16.2 3.2-22.5 9.5-6.3 6.3-9.5 13.7-9.5 22.5V672.6c0 8.7 3.2 16.2 9.5 22.5 6.3 6.3 13.7 9.5 22.5 9.5h144.1c8.7 0 16.2-3.2 22.5-9.5 6.3-6.3 9.5-13.8 9.5-22.5v-320.3c0-8.7-3.1-16.2-9.5-22.6z m-80.1 301.6c-6.3 6.2-13.8 9.3-22.5 9.3-9.1 0-16.6-3.1-22.7-9.3-6.2-6.2-9.3-13.7-9.3-22.7 0-8.7 3.1-16.2 9.3-22.5 6.2-6.3 13.7-9.5 22.7-9.5 8.7 0 16.2 3.2 22.5 9.5 6.3 6.3 9.5 13.7 9.5 22.5 0 9-3.2 16.6-9.5 22.7z m662.3-166.4c1.1 25.4-6.2 48.2-21.5 68.5 5.7 18.6 5.7 38.2 0 58.6-5.1 19-14 34.8-27.1 47 3.1 37.4-5.2 67.5-24.5 90.6-21.4 25.4-54.2 38.3-98.6 39h-64.7c-22 0-46-2.6-72.1-7.8-26-5.2-46.3-10-60.9-14.5-14.5-4.5-34.7-11.1-60.4-19.8-41-14.3-67.3-21.7-79.1-22-8.7-0.3-16.2-3.6-22.5-9.8-6.3-6.2-9.5-13.5-9.5-22.3v-320.8c0-8.3 3.1-15.5 9.1-21.8 6-6.2 13.1-9.6 21.5-10.3 8-0.6 20.7-10.6 38-29.6s34.2-39.2 50.5-60.6c22.7-29.1 39.5-49 50.5-60.1 6-6 11.2-14 15.4-24 4.3-10 7.3-18.1 8.8-24.3 1.5-6.2 3.8-16.3 6.8-30.3 2.3-13 4.4-23.1 6.2-30.5 1.8-7.4 5.1-16 9.8-26 4.7-10 10.4-18.3 17-25.1 6.3-6.3 13.7-9.5 22.5-9.5 15.3 0 29.2 1.8 41.2 5.3 12.3 3.5 22.2 7.9 30 13 7.8 5.2 14.5 11.9 20 20.3 5.5 8.3 9.5 15.9 12 22.5 2.5 6.7 4.5 15 6 25.1 1.5 10 2.3 17.4 2.5 22.5 0.2 5.1 0.2 11.5 0.2 19.5 0 12.6-1.7 25.5-5.1 38.3-3.4 12.8-6.6 22.6-9.5 29.3-3.1 6.7-7.5 16.2-13.4 28.5-1.1 2-2.6 5.1-5.1 9.1-2.3 4-4.2 7.7-5.5 11.1-1.4 3.4-2.6 7.4-4 12h138.6c26 0 48.4 9.5 67.3 28.5 18.8 19 28.4 41.5 28.8 67.5 0 29.4-9.2 54.2-27.6 74.5 5.9 15.1 8.4 27.7 8.4 38.4z"  horiz-adv-x="1024" />

    
    <glyph glyph-name="jiantou_yemian_xiangyou" unicode="&#60171;" d="M430.933333 405.333333L256 230.4 315.733333 170.666667l234.666667 234.666666L315.733333 640 256 580.266667l174.933333-174.933334z m256 0L512 230.4l59.733333-59.733333 234.666667 234.666666L576 640 512 580.266667l174.933333-174.933334z"  horiz-adv-x="1024" />

    
    <glyph glyph-name="bell" unicode="&#62074;" d="M942.78 171.42c-38.64 41.52-110.94 103.98-110.94 308.58 0 155.4-108.96 279.8-255.88 310.32V832c0 35.34-28.64 64-63.96 64s-63.96-28.66-63.96-64v-41.68C301.12 759.8 192.16 635.4 192.16 480c0-204.6-72.3-267.06-110.94-308.58-12-12.9-17.32-28.32-17.22-43.42 0.22-32.8 25.96-64 64.2-64h767.6c38.24 0 64 31.2 64.2 64 0.1 15.1-5.22 30.54-17.22 43.42zM199.06 160c42.44 55.94 88.84 148.66 89.06 318.84 0 0.4-0.12 0.76-0.12 1.16 0 123.72 100.28 224 224 224s224-100.28 224-224c0-0.4-0.12-0.76-0.12-1.16 0.22-170.2 46.62-262.92 89.06-318.84H199.06zM512-128c70.64 0 127.94 57.3 127.94 128H384.06c0-70.7 57.3-128 127.94-128z"  horiz-adv-x="1024" />

    
    <glyph glyph-name="fenxiang" unicode="&#58908;" d="M640 316.342857c-10.971429-1.828571-16.457143-12.8-12.8-21.942857 1.828571-9.142857 12.8-14.628571 21.942857-12.8 9.142857 1.828571 16.457143 12.8 12.8 21.942857-1.828571 10.971429-10.971429 16.457143-21.942857 12.8zM764.342857 283.428571c-7.314286 7.314286-18.285714 7.314286-25.6 0s-7.314286-18.285714 0-25.6c36.571429-36.571429 36.571429-95.085714 0-131.657142-18.285714-18.285714-40.228571-27.428571-65.828571-27.428572s-47.542857 9.142857-65.828572 27.428572c-36.571429 36.571429-36.571429 95.085714 0 131.657142 7.314286 7.314286 7.314286 18.285714 0 25.6s-18.285714 7.314286-25.6 0c-3.657143-3.657143-7.314286-7.314286-9.142857-10.971428l-173.714286 89.6c-1.828571 0-1.828571 0-3.657142 1.828571 5.485714 12.8 7.314286 27.428571 7.314285 42.057143 0 12.8-1.828571 25.6-5.485714 36.571429l118.857143 64c23.771429-34.742857 62.171429-58.514286 107.885714-58.514286 71.314286 0 129.828571 58.514286 129.828572 129.828571s-60.342857 128-131.657143 128-128-56.685714-128-128c0-12.8 1.828571-25.6 5.485714-38.4l-118.857143-65.828571a121.234286 121.234286 0 0 1-98.742857 51.2c-65.828571 0-120.685714-54.857143-120.685714-120.685714s54.857143-120.685714 120.685714-120.685715c40.228571 0 74.971429 18.285714 96.914286 49.371429 1.828571 0 1.828571-1.828571 3.657143-1.828571l171.885714-87.771429c-18.285714-47.542857-9.142857-102.4 27.428571-140.8 23.771429-23.771429 56.685714-38.4 91.428572-38.4s67.657143 12.8 91.428571 38.4c49.371429 47.542857 49.371429 129.828571 0 181.028571zM621.714286 669.257143c51.2 0 93.257143-42.057143 93.257143-93.257143s-42.057143-93.257143-93.257143-93.257143-91.428571 42.057143-91.428572 95.085714 40.228571 91.428571 91.428572 91.428572zM281.6 320c-45.714286 0-84.114286 38.4-84.114286 84.114286s38.4 84.114286 84.114286 84.114285 84.114286-38.4 84.114286-84.114285-38.4-84.114286-84.114286-84.114286z"  horiz-adv-x="1024" />

    
    <glyph glyph-name="wen" unicode="&#58918;" d="M513.9 798C285.2 798 99.8 612.6 99.8 383.9c0-228.7 185.4-414.1 414.1-414.1 228.7 0 414.1 185.4 414.1 414.1C928 612.6 742.6 798 513.9 798z m51.5-646.9c0-30.5-24.7-55.2-55.2-55.2H503c-30.5 0-55.2 24.7-55.2 55.2 0 30.5 24.7 55.2 55.2 55.2h7.2c30.5 0 55.2-24.7 55.2-55.2z m48 206.3c-43.2-30.4-63.2-60-60-88.8v-19.2h-96v26.4c-1.6 49.6 19.2 88.8 62.4 117.6 40 30.4 59.2 59.2 57.6 86.4-3.2 33.6-22.4 52-57.6 55.2-31.5 0-54.6-15.4-69-46.1-10.9-23.1-36.1-35.7-61.1-30.8-36.7 7.2-56.2 47.7-38.9 80.8 33.5 63.8 95.4 94.5 185.9 92.1 99.2-6.4 153.5-51.2 163.1-134.4 3.1-54.4-25.7-100.8-86.4-139.2z"  horiz-adv-x="1024" />

    
    <glyph glyph-name="shang" unicode="&#58920;" d="M480.1 604.6c-0.8-0.6-1.7-1.4-2.5-2.1L82.7 242c-21.5-19.6-23-52.9-3.4-74.4 19.6-21.5 52.9-23 74.4-3.4l359.8 328.3 358.8-328.6c21.4-19.6 54.7-18.2 74.4 3.3 19.6 21.4 18.2 54.7-3.3 74.4L549.1 602.7c-19.6 18-49.1 18.3-69 1.9z"  horiz-adv-x="1024" />

    
    <glyph glyph-name="xia" unicode="&#58900;" d="M548.352 165.376l394.24 360.96c21.504 19.456 23.04 53.248 3.072 74.24-19.456 21.504-53.248 23.04-74.24 3.072l-358.912-328.704L153.088 604.16c-21.504 19.456-54.784 17.92-74.24-3.584-19.456-21.504-17.92-54.784 3.584-74.24l394.752-360.448c1.024-0.512 1.536-1.536 2.56-2.048 19.456-16.896 49.152-16.384 68.608 1.536z"  horiz-adv-x="1024" />

    
    <glyph glyph-name="dui2" unicode="&#58910;" d="M509.9 766.9c51.9 0 102.2-10.1 149.5-30.2 45.7-19.3 86.8-47 122.1-82.3s63-76.4 82.3-122.1c20-47.3 30.2-97.6 30.2-149.5s-10.1-102.2-30.2-149.5c-19.3-45.7-47-86.8-82.3-122.1s-76.4-63-122.1-82.3c-47.3-20-97.6-30.2-149.5-30.2S407.7 9 360.4 29.1c-45.7 19.3-86.8 47-122.1 82.3s-63 76.4-82.3 122.1c-20 47.3-30.2 97.6-30.2 149.5S136 485.1 156 532.4c19.3 45.7 47 86.8 82.3 122.1s76.4 63 122.1 82.3c47.3 20 97.6 30.1 149.5 30.1m0 64c-247.4 0-448-200.6-448-448s200.6-448 448-448 448 200.6 448 448-200.6 448-448 448zM444.3 185.2L248 381.5l45.3 45.3 151-151.1 282.2 282.2 45.3-45.2z"  horiz-adv-x="1024" />

    
    <glyph glyph-name="jilu" unicode="&#58925;" d="M239.8 73.4c-2.5 0-5.2 0.6-8.5 1.8-9.6 3.5-14.7 14.2-11.4 23.9 20.2 59.8 81.4 205.8 89.2 221.4C457.4 616.9 614.6 751.5 870 800.6c7.8 1.4 15.5-1.9 19.6-8.5 4.1-6.6 3.8-15.1-0.9-21.4L767.4 609.5c-6.7-8.9-8.9-20.3-6-31.1l16.4-61.1c5.6-20.6 1.9-42.7-10-60.4a73.392 73.392 0 0 0-52.2-32.1l-83.8-10.4c-14.9-1.9-27.1-12.9-30.6-27.3 5.7-31-9.3-62.4-37-75.8-14.1-6.9-29.8-9-45.2-6.2l-75 13.5c-11.4 2-23.2-2.1-30.8-10.7L286.7 165.1c-2.8-6.8-15.6-39.3-22.7-57.3-2.7-6.8-4.9-12.6-7.1-17.3-0.4-1.2-0.8-2.3-1.2-3.4l-0.4 0.1c-4.5-9.2-8.8-13.8-15.5-13.8z m588 679.2c-215.9-54.3-350.7-180.8-484.8-449-2-4-7.8-17.3-15.6-35.7l57.5 64.9c16.3 18.4 41.5 27.2 65.7 22.8l75-13.5c7.6-1.4 15.2-0.3 22.1 3 13 6.3 19.7 21.9 15.9 37.1-0.6 2.4-0.7 5-0.4 7.4 5 32.5 31.3 58 63.9 62.1l83.8 10.4c10.4 1.3 19.7 7 25.5 15.7 5.8 8.7 7.6 19.4 4.9 29.5l-16.4 61.1c-6 22.1-1.5 45.3 12.3 63.6l90.6 120.6zM326.1 312.1h0.2-0.2zM435.9-45c-32.6 0-49.6 20.4-62 35.3C362 4.5 355.2 12 341 12s-21.1-7.4-33-21.7c-12.4-14.9-29.4-35.3-62-35.3s-49.5 20.4-61.9 35.3c-11.9 14.3-18.7 21.7-33 21.7-10.4 0-18.9 8.5-18.9 18.9 0 10.4 8.5 18.9 18.9 18.9 32.6 0 49.6-20.4 62-35.3 11.9-14.2 18.7-21.7 32.9-21.7s21.1 7.4 33 21.7c12.4 14.9 29.4 35.3 62 35.3s49.6-20.4 62-35.3c11.9-14.2 18.7-21.7 33-21.7 10.4 0 18.9-8.5 18.9-18.9-0.1-10.5-8.6-18.9-19-18.9z"  horiz-adv-x="1024" />

    
    <glyph glyph-name="dengdai" unicode="&#58946;" d="M802.986 696.044c17.234-16.07 18.177-43.069 2.106-60.303-16.07-17.234-43.07-18.176-60.303-2.106C606.919 762.201 390.93 754.66 262.365 616.79 133.799 478.919 141.34 262.93 279.21 134.365 417.081 5.799 633.07 13.34 761.635 151.21c91.374 97.986 116.156 238.752 66.87 360.835-8.822 21.85 1.74 46.715 23.592 55.537 21.85 8.82 46.715-1.742 55.536-23.592 61.586-152.55 30.607-328.517-83.589-450.977-160.707-172.337-430.693-181.765-603.03-21.058s-181.765 430.693-21.058 603.03 430.693 181.765 603.03 21.058z m-89.353-377.933c21.21-10.268 30.08-35.785 19.812-56.994-10.268-21.21-35.786-30.08-56.995-19.812L503.283 325.14a42.667 42.667 0 0 0-24.075 38.403V583.375c0 23.564 19.103 42.667 42.667 42.667s42.667-19.103 42.667-42.667V390.29l149.091-72.179z"  horiz-adv-x="1024" />

    
    <glyph glyph-name="wenjian1" unicode="&#59014;" d="M550.4 618.666667h260.266667c56.554667 0 102.4-45.845333 102.4-102.4v-375.466667c0-56.554667-45.845333-102.4-102.4-102.4H213.333333c-56.554667 0-102.4 45.845333-102.4 102.4V661.333333c0 37.704533 30.562133 68.266667 68.266667 68.266667h264.789333a68.266667 68.266667 0 0 0 58.1376-32.4864L550.4 618.666667z m259.84-528.695467c28.279467 0 51.2 22.9248 51.2 51.2v375.466667c0 28.2752-22.920533 51.2-51.2 51.2H162.56v-426.666667c0-28.2752 22.9248-51.2 51.2-51.2h596.48zM465.7152 669.802667A17.066667 17.066667 0 0 1 450.897067 678.4H179.2a17.066667 17.066667 0 0 1-17.066667-17.066667v-41.634133L494.933333 618.666667l-29.218133 51.136z"  horiz-adv-x="1024" />

    
    <glyph glyph-name="you-" unicode="&#58943;" d="M334.08 704a47.36 47.36 0 0 1 0-64l256-256-256-256a47.36 47.36 0 1 1 64-64l288.64 288.64A50.56 50.56 0 0 1 704 384a47.36 47.36 0 0 1-14.08 33.28L401.28 704a47.36 47.36 0 0 1-67.2 0z"  horiz-adv-x="1024" />

    
    <glyph glyph-name="zuo-" unicode="&#58944;" d="M689.92 704a47.36 47.36 0 0 0 0-64l-256-256 256-256a47.36 47.36 0 0 0-64-64L334.08 350.08A50.56 50.56 0 0 0 320 384a47.36 47.36 0 0 0 14.08 33.28L622.72 704a47.36 47.36 0 0 0 67.2 0z"  horiz-adv-x="1024" />

    
    <glyph glyph-name="yunwei" unicode="&#58926;" d="M842.642 134.18600000000004H181.357c-46.407 0-84.163 37.756-84.163 84.162V699.28c0 46.408 37.756 84.164 84.163 84.164h661.284c46.407 0 84.164-37.756 84.164-84.164v-480.933c0.001-46.406-37.756-84.161-84.163-84.161zM181.357 735.351c-19.889 0-36.069-16.18-36.069-36.07v-480.933c0-19.888 16.181-36.07 36.069-36.07h661.284c19.89 0 36.071 16.183 36.071 36.07V699.28c0 19.891-16.182 36.07-36.071 36.07H181.357zM902.758-15.44399999999996H121.241c-13.281 0-24.047 10.766-24.047 24.046 0 13.282 10.766 24.047 24.047 24.047h781.517c13.281 0 24.048-10.765 24.048-24.047 0-13.281-10.767-24.046-24.048-24.046zM705.836 499.174l-39.967 4.902a157.85 157.85 0 0 1-12.546 31.215l24.811 31.747c5.993 7.669 4.408 19.745-3.223 27.377l-25.837 25.838c-7.633 7.632-19.711 9.216-27.379 3.223l-30.844-24.104a158.107 158.107 0 0 1-31.969 13.67l-4.764 38.833c-1.185 9.659-10.844 17.079-21.637 17.079H495.94c-10.793 0-20.452-7.42-21.638-17.079l-4.652-37.936a158.072 158.072 0 0 1-32.959-13.411L406.44 624.1700000000001c-7.668 5.993-19.746 4.41-27.378-3.223l-25.837-25.838c-7.631-7.632-9.216-19.708-3.224-27.377l23.464-30.022a158.151 158.151 0 0 1-13.635-32.865l-38.227-4.688c-9.661-1.186-17.079-10.845-17.079-21.638v-36.541c-0.001-10.792 7.418-20.452 17.079-21.636l38.529-4.727a158.035 158.035 0 0 1 13.458-32.067l-24.283-31.071c-5.993-7.668-4.409-19.746 3.222-27.376l25.838-25.838c7.633-7.635 19.709-9.217 27.378-3.223l31.497 24.614a158.19 158.19 0 0 1 31.142-12.749l4.938-40.263c1.186-9.66 10.845-17.082 21.638-17.081h36.54c10.792-0.001 20.452 7.421 21.638 17.081l4.975 40.566a158.253 158.253 0 0 1 30.35 12.564l32.539-25.43c7.67-5.993 19.747-4.408 27.376 3.226l25.839 25.835c7.634 7.635 9.216 19.711 3.223 27.379l-25.249 32.308a158.06 158.06 0 0 1 12.777 30.256l40.869 5.012c9.662 1.185 17.08 10.846 17.078 21.639l0.001 36.539c0 10.793-7.418 20.454-17.08 21.638zM513.723 374.31100000000004c-47.192 0-85.448 38.256-85.448 85.446 0 47.191 38.256 85.446 85.448 85.446 47.19 0 85.444-38.255 85.444-85.446 0-47.191-38.254-85.446-85.444-85.446z"  horiz-adv-x="1024" />

    
    <glyph glyph-name="fabu" unicode="&#58919;" d="M978.88 800L25.6 416c-32-13.44-34.24-37.12 0-52.8l257.92-122.24a32 32 0 0 1 35.2 16 32 32 0 0 1-9.92 37.44l-195.52 92.8L948.8 723.2l-186.56-644.48-224 106.24s-28.16 0-35.52-19.84a32 32 0 0 1 9.28-33.6l227.52-107.84a54.08 54.08 0 0 1 77.76 34.88l204.16 701.76c9.92 34.88-9.6 52.16-42.56 39.68zM947.84 722.56l-87.68-34.88-434.88-406.72a224 224 0 0 1-61.76-130.56l-8.96-163.52a35.2 35.2 0 0 1 29.44-22.4 36.48 36.48 0 0 1 30.4 22.4l8.32 160a166.08 166.08 0 0 0 43.2 91.52L934.72 675.84z"  horiz-adv-x="1024" />

    
    <glyph glyph-name="fujian" unicode="&#58893;" d="M824.1 388.8s-2-1.9-3-3L481 45.700000000000045l-0.1-0.1c-0.9-0.6-1.7-1.4-2.4-2.1-84.8-82.2-221.5-81.2-305 2.3C89.9 129.39999999999998 89 266.29999999999995 171.6 351c5.8 5.9 386.1 386.5 389.9 390.3 59.6 59.5 156.4 59.5 215.9 0 28.7-28.7 44.6-66.9 44.6-107.6-0.1-40.8-16-79.2-45-108.1L385.6 134.20000000000005c-33-30-83.5-28.7-115.2 2.9-31.7 31.6-32.7 82.3-2.5 115.4 0.6 0.5 1.1 1.2 1.5 1.9l0.1 0.1 0.4 0.4 1 1c0.1 0.1 0.2 0.1 0.3 0.2l340.3 340.4-32.5 32.6-340.2-340.2-1.5-1.4-0.9-0.9-3.8-3.8c-1.5-1.5-2.8-3.2-3.8-5-41.8-51.3-38.5-126 8.8-173.3 49.4-49.3 128.2-51.1 179.6-3.9 0.2 0.2 0.5 0.4 0.7 0.6L809.7 493c37.7 37.6 58.4 87.5 58.4 140.7 0 53-20.5 102.8-58 140.3-77.5 77.5-203.7 77.5-281.2 0l-195-195.2-134.2-134.3-60.7-60.7c-0.2-0.2-0.3-0.4-0.5-0.5-100.2-102.7-99.3-268.8 2.2-370.1 51.1-51.2 118.7-76.8 186.3-76.8 65.4 0 130.9 24 181.5 72.1 0.4 0.3 0.8 0.6 1.1 0.9 0.4 0.3 0.7 0.6 1.1 1l2.5 2.4c0.1 0.2 0.2 0.2 0.3 0.3l340.3 340.4c0 0.1 0.2 0.2 0.2 0.3 0.6 0.5 1.8 1.7 1.8 1.7l-31.7 33.3z"  horiz-adv-x="1024" />

    
    <glyph glyph-name="tishi" unicode="&#58978;" d="M512 793.6c-227.84 0-409.6-181.76-409.6-409.6s181.76-409.6 409.6-409.6 409.6 181.76 409.6 409.6-181.76 409.6-409.6 409.6z m-39.424-160.256c10.752 10.752 19.968 17.92 37.376 17.92 19.456 1.536 37.376-7.68 44.544-21.504 8.192-9.728 12.8-31.232 10.752-44.032 0-3.584-2.56-27.648-3.584-34.304l-14.336-181.76c0-17.92-3.584-35.84-10.752-49.664-3.584-10.752-14.336-17.92-28.672-17.92-10.752 0-21.504 7.168-25.088 17.92-7.168 17.92-10.752 32.256-10.752 49.664L462.336 547.84c-3.584 32.256-3.584 21.504-3.584 39.424 0 17.408 3.584 31.744 13.824 46.08z m78.848-502.272c-10.752-10.752-25.088-14.336-35.84-14.336-14.336 0-28.672 3.584-39.424 14.336s-17.92 25.088-17.92 42.496c0 14.336 3.584 28.672 14.336 39.424 10.752 10.752 25.088 17.92 39.424 17.92s28.672-7.168 39.424-17.92 14.336-25.088 14.336-39.424c-0.512-17.408-4.096-31.744-14.336-42.496z"  horiz-adv-x="1024" />

    
    <glyph glyph-name="yonghu1" unicode="&#58903;" d="M512.6-127.20000000000005c-69 0-135.9 13.5-198.9 40.2-60.8 25.7-115.5 62.6-162.4 109.5S67.6 124 41.8 184.79999999999995c-26.6 63-40.2 129.9-40.2 198.9s13.5 135.9 40.2 198.9c25.7 60.8 62.6 115.5 109.5 162.4S252.9 828.7 313.7 854.4C376.7 881 443.6 894.6 512.6 894.6s135.9-13.5 198.9-40.2c60.8-25.7 115.5-62.6 162.4-109.5s83.7-101.5 109.5-162.4c26.6-63 40.2-129.9 40.2-198.9s-13.5-135.9-40.2-198.9c-25.7-60.8-62.6-115.5-109.5-162.4S772.3-61.299999999999955 711.4-87c-63-26.7-129.9-40.2-198.8-40.2z m0 957.8c-246.4 0-446.9-200.5-446.9-446.9 0-246.4 200.5-446.9 446.9-446.9 246.4 0 446.9 200.5 446.9 446.9C959.4 630.1 759 830.6 512.6 830.6zM508.3 207.70000000000005c-68.4 0-132.7 26.6-181.1 75s-75 112.7-75 181.1 26.6 132.7 75 181.1 112.7 75 181.1 75c68.4 0 132.7-26.6 181.1-75s75-112.7 75-181.1-26.6-132.7-75-181.1-112.7-75-181.1-75z m0 448.2c-105.9 0-192.1-86.2-192.1-192.1 0-105.9 86.2-192.1 192.1-192.1 105.9 0 192.1 86.2 192.1 192.1 0 105.9-86.2 192.1-192.1 192.1zM209.6-19.200000000000045c-3.4 0-6.8 0.5-10.2 1.7-16.8 5.6-25.8 23.8-20.2 40.5 11.6 34.5 28.4 66.8 50 96.2 21.4 29 46.9 54.5 76 75.8 60.5 44.2 132.1 67.6 207.3 67.6 75.1 0 146.8-23.4 207.3-67.6 29.1-21.3 54.7-46.8 76-75.8 21.6-29.4 38.4-61.8 50-96.2 5.6-16.8-3.4-34.9-20.2-40.5-16.8-5.6-34.9 3.4-40.5 20.2-39.3 117.2-148.9 196-272.6 196-123.7 0-233.3-78.8-272.6-196-4.4-13.4-16.9-21.9-30.3-21.9z"  horiz-adv-x="1024" />

    
    <glyph glyph-name="dianhua" unicode="&#59167;" d="M704.512 508.928q21.504-25.6 46.08-52.224 20.48-23.552 45.568-52.224t51.712-58.368q33.792-38.912 55.808-69.632t34.816-56.32 17.408-47.104 4.608-43.008v-66.56q0-30.72-10.24-55.296t-28.16-42.496-40.96-27.648-48.64-9.728H200.704q-27.648 0-52.736 9.216t-44.032 26.112-30.208 40.448-11.264 53.248v78.848q0 24.576 4.608 47.104T83.968 230.4t33.792 52.736 54.272 61.952q26.624 28.672 54.784 57.856t50.688 52.736q26.624 27.648 51.2 53.248h375.808zM512 120.832q26.624 0 50.176 10.24t40.96 27.648 27.648 41.472 10.24 50.688-10.24 50.176-27.648 40.96-40.96 27.648T512 379.904t-50.688-10.24-41.472-27.648-27.648-40.96-10.24-50.176 10.24-50.688 27.648-41.472 41.472-27.648T512 120.832z m513.024 512v-64.512q0-26.624-18.944-45.056t-45.568-18.432h-128q-26.624 0-45.056 18.432t-18.432 45.056v64.512H256v-64.512q0-26.624-18.432-45.056t-45.056-18.432h-128q-26.624 0-45.568 18.432T0 568.32v66.56q0 12.288 6.144 20.992t15.36 15.872 20.48 12.8 22.528 12.8q11.264 6.144 50.688 27.136T214.528 768 350.72 807.936t162.304 17.408q98.304 0 175.616-17.408T822.784 768t91.136-43.52 46.592-27.136q12.288-7.168 23.552-12.8t20.48-12.8 14.848-15.872 5.632-20.992v-2.048z"  horiz-adv-x="1026" />

    
    <glyph glyph-name="zuo" unicode="&#58921;" d="M514 781.7c-219.9 0-398.8-178.9-398.8-398.8S294.1-16 514-16s398.9 178.9 398.9 398.8-179 398.9-398.9 398.9z m95.6-518.3c22.9-22.9 22.9-60.2 0-83.1-22.9-22.9-60.2-22.9-83.1 0L362.4 344.4c-22.9 22.9-22.9 60.2 0 83.1l164.1 164.1c22.9 22.9 60.2 22.9 83.1 0 11.5-11.5 17.2-26.5 17.2-41.5s-5.7-30.1-17.2-41.5L487.1 386l122.5-122.6z"  horiz-adv-x="1024" />

    
    <glyph glyph-name="jinggao" unicode="&#59157;" d="M941.8 167L590.4 776.3c-14.8 43.2-61.7 66.2-104.9 51.4-24.2-8.3-43.1-27.2-51.4-51.4L82.8 167c-43.2-74.3-8.3-134.7 78.1-134.7h702.7c86.4 0 121.4 60.3 78.2 134.7zM464 603.4c25.9 26.7 68.6 27.3 95.2 1.3 0.5-0.4 0.9-0.9 1.3-1.3 12.8-13.8 19.7-32 19.1-50.8 0-17.2-26.7-145.5-34.9-238.9h-63.5c-7.6 93.4-36.2 221.7-36.2 238.9-0.5 18.8 6.3 37 19 50.8z m95.9-444.7c-26.7-25.3-68.6-25.3-95.3 0-26.3 26.3-26.3 69 0.1 95.2 26.3 26.3 69 26.3 95.2-0.1 26.3-26.2 26.3-68.8 0-95.1z"  horiz-adv-x="1034" />

    
    <glyph glyph-name="Record" unicode="&#58902;" d="M508.064 352.128c-120.576 0-220.128 37.184-246.368 85.024-5.248-10.624-10.496-15.936-10.496-26.56v-79.648c0-58.496 115.328-106.304 256.864-106.304s256.864 47.808 256.864 106.304v79.648c0 10.656-5.248 15.968-10.464 26.56-26.208-47.84-125.792-85.024-246.4-85.024M508.064 193.696c-120.576 0-220.128 31.328-246.368 78.176-5.248-5.184-10.496-15.616-10.496-20.8v-78.24c0-62.56 115.328-109.504 256.864-109.504s256.864 46.944 256.864 109.504v78.24c0 5.184-5.248 15.616-10.464 20.8-26.208-46.88-125.792-78.176-246.4-78.176M754.464 594.56c-5.248-47.52-110.08-79.168-246.4-79.168-131.008 0-241.12 31.648-246.368 79.168-5.248-10.56-10.496-15.84-10.496-26.4v-79.2c0-58.08 115.328-110.848 256.864-110.848s256.864 52.768 256.864 110.848v79.2c0 10.56-5.248 15.84-10.464 26.4M251.2 609.344c7.904 57.504 120.256 95.36 258.848 95.36s250.912-37.888 250.912-84.608c0-46.72-112.352-84.64-250.912-84.64S259.104 573.408 251.2 609.344"  horiz-adv-x="1024" />

    
    <glyph glyph-name="xiazai" unicode="&#58929;" d="M787.2 184.96a32 32 0 0 0-32 32 32 32 0 0 0 32 32 156.8 156.8 0 0 1 136.32 80.64A200.96 200.96 0 0 1 960 448a198.4 198.4 0 0 1-198.4 198.4 35.2 35.2 0 0 0-30.72 15.36 256 256 0 0 1-460.16-49.92 32.64 32.64 0 0 0-31.36-21.76h-7.68a170.88 170.88 0 0 1 0-341.76h28.8a32 32 0 0 0 32-32 32 32 0 0 0-32-32h-25.6a234.88 234.88 0 0 0-13.44 469.12 320 320 0 0 0 556.8 55.04A263.04 263.04 0 0 0 1024 448a256 256 0 0 0-49.28-152.32 218.88 218.88 0 0 0-187.52-110.72zM512-52.48a32.64 32.64 0 0 0-32 32V320a32 32 0 0 0 32 32 32 32 0 0 0 32-32v-340.48a32 32 0 0 0-32-32zM512-64a32 32 0 0 0-22.4 9.6l-140.8 141.44a32 32 0 1 0 44.8 46.08l142.08-139.52A32 32 0 0 0 512-64zM512-64a32.64 32.64 0 0 0-23.04 9.6 32.64 32.64 0 0 0 0 45.44l144.64 142.08a31.36 31.36 0 0 0 44.8 0 32 32 0 0 0 0-45.44l-142.72-139.52A31.36 31.36 0 0 0 512-64z"  horiz-adv-x="1026" />

    
    <glyph glyph-name="yinsixieyi" unicode="&#58905;" d="M433.4 357.9v-159.2c0-47.6 35.6-86.3 79.4-86.3s79.4 38.7 79.4 86.3V357.9c38.1 26.3 61.5 70.2 61.6 116.9 0 78.2-63.2 141.9-141 141.9-77.7 0-141-63.7-141-141.9 0.1-46.8 23.4-90.6 61.6-116.9z m79.4 185.7c37.6 0 68.2-30.9 68.2-68.8 0-26.9-15.8-51.5-40.2-62.8l-0.2-0.1c-2-0.9-3.4-2-4.4-2.8-1.8-1.1-4.3-2.7-6.7-5.2-1.9-2-3-3.9-3.6-4.9l-0.1-0.1c-0.1-0.1-0.2-0.2-0.2-0.4-0.9-1.3-2.4-3.5-3.6-6.4-1.1-2.8-1.5-5.3-1.7-6.8-0.4-1.3-1-3.6-1-6.6v-180.1c0-8.4-5-10.2-6.6-10.2-1.6 0-6.6 1.8-6.6 10.2V378.7c0 2.6-0.5 4.6-0.8 5.8-0.2 1.8-0.6 4.7-1.9 7.8-1.1 2.7-2.4 4.6-3.2 5.8-0.1 0.1-0.1 0.2-0.2 0.2 0 0.1-0.1 0.2-0.1 0.2-0.7 1.2-1.9 3.3-3.9 5.3-2.4 2.5-4.8 4-6.4 5.1-0.9 0.7-2.5 1.9-4.7 3l-0.1 0.1c-24.5 11.2-40.2 35.8-40.2 62.8 0 37.9 30.6 68.8 68.2 68.8zM854.1 713.2c-179.5 0-304 103.3-310.1 108.4-8.1 6.9-18.4 10.8-29 10.8-13.6-0.1-26.2-6.2-34.7-16.7l-0.1-0.1c-26.8-33.9-77.3-61.4-146.1-79.4-75.2-19.7-143.3-21.3-162.4-21.3h-1.2l-1.1-0.2c-12.7-1.7-22.3-5.9-29.2-12.9-8.3-8.3-13.1-19.8-13.1-31.6v-311.9c0-69.8 49.8-173.7 126.9-264.7 38.7-45.7 81.4-84.3 123.4-111.5 48.5-31.4 94.9-47.4 137.8-47.4 44.5 0 91.8 16.2 140.5 48.2 41.4 27.2 83.4 65.9 121.5 112 72.7 87.9 121.5 189.8 121.5 253.6v320c-0.1 24.7-20.1 44.7-44.6 44.7z m-28.3-72.3v-292.5c0-46.1-43.8-132.7-104.1-205.9-32.7-39.6-68-72.8-102.2-96.1-37.8-25.7-73-38.7-104.5-38.7-58.4 0-135.6 50.3-206.5 134.5-31.7 37.6-58.9 78.3-78.6 117.7-19.4 38.6-30 73.5-30 98.4V642.4c53.9 2.4 111.7 11.4 161.1 25.2 68.3 19.1 121.2 46.5 157.6 81.8 45.5-32.4 158.1-100.6 307.2-108.5z"  horiz-adv-x="1024" />

    
    </font>
</defs>
</svg>
